<svg width="68" height="100" viewBox="0 0 68 100" fill="none" xmlns="http://www.w3.org/2000/svg" class="mt-5">
<path d="M67.4909 88.4896V98.3335C67.4909 99.2538 66.7448 100 65.8245 100C64.9042 100 64.158 99.2538 64.158 98.3335V88.4896C64.158 80.825 57.9557 74.6223 50.2905 74.6225C46.6637 74.6225 43.3731 72.7748 41.4877 69.6798C41.009 68.8938 41.2579 67.8684 42.0441 67.3897C42.83 66.9108 43.8553 67.1599 44.3342 67.9461C45.6094 70.0397 47.836 71.2896 50.2905 71.2896C59.7969 71.2892 67.4909 78.9823 67.4909 88.4896ZM38.4102 71.7849C38.6062 72.6842 38.036 73.572 37.1368 73.768C32.7511 74.7235 28.2907 73.767 24.7393 71.3429C21.2235 75.1105 16.5787 74.6225 17.2005 74.6225C9.53583 74.6223 3.3329 80.8244 3.3329 88.4896V98.3335C3.3329 99.2538 2.58674 100 1.66645 100C0.746152 100 0 99.2538 0 98.3335V88.4896C0 78.9834 7.69253 71.2896 17.2 71.2896C21.0458 71.2896 24.1635 68.191 24.1635 64.3442V63.9053C16.8897 60.4273 11.7841 53.1184 11.4729 44.6072C8.47951 43.8875 6.24918 41.2083 6.24918 38.0206V29.3815C6.15815 25.1529 6.78598 14.562 14.5081 7.11842C24.0433 -2.07329 39.3346 -1.48941 50.5786 3.92342C51.6745 4.45148 51.8409 5.93212 50.9308 6.69889C56.6269 8.08829 61.5388 11.5899 64.6944 16.6013C64.8573 16.8594 65.1556 17.2646 65.0777 17.911C65.0294 18.3132 64.9096 18.6536 64.5996 18.9681C62.5687 21.0278 61.4503 23.7573 61.4503 26.6538V38.021C61.4503 38.9413 60.7041 39.6875 59.7838 39.6875C58.8635 39.6875 58.1174 38.9413 58.1174 38.021V26.6538C58.1174 23.3132 59.2587 20.1423 61.3549 17.5952C58.1599 13.0258 53.1751 10.087 47.5375 9.48332L44.6085 9.16961C42.8958 8.9863 42.5598 6.62682 44.1515 5.97169L45.4836 5.42322C28.1346 -0.624939 9.58187 6.09522 9.58187 29.3634V38.0206C9.58187 39.3429 10.3434 40.4922 11.4566 41.0694V30.266C11.4566 23.8339 16.6897 18.6009 23.1218 18.6009H44.369C50.801 18.6009 56.0341 23.8335 56.0341 30.2654V43.91C56.0341 58.4027 41.8718 69.4109 27.4608 65.1683C27.367 66.3573 27.071 67.5047 26.5888 68.5712C29.3922 70.4963 32.9323 71.2729 36.4271 70.5113C37.3264 70.3155 38.2141 70.8857 38.4102 71.7849ZM33.7454 62.7392C44.1977 62.7392 52.7012 54.2358 52.7012 43.7834V30.2654C52.7012 25.6714 48.9634 21.9338 44.369 21.9338H23.1218C18.5274 21.9338 14.7895 25.6716 14.7895 30.266V43.7834C14.7895 54.2358 23.293 62.7392 33.7454 62.7392ZM50.6182 91.4594H45.6188C44.6985 91.4594 43.9524 92.2056 43.9524 93.1259C43.9524 94.0462 44.6985 94.7923 45.6188 94.7923H50.6182C51.5384 94.7923 52.2846 94.0462 52.2846 93.1259C52.2846 92.2056 51.5384 91.4594 50.6182 91.4594Z" fill="#00D5FF"></path>
<path d="M65.8245 88.4891V96.6672C65.8245 97.5879 65.0788 98.3336 64.1581 98.3336H3.33271C2.412 98.3336 1.66626 97.5879 1.66626 96.6672V88.4891C1.66626 79.909 8.6216 72.9578 17.2038 72.9557C20.2367 72.9536 22.9072 71.3934 24.4445 69.0271C25.9847 66.66 25.8306 64.6009 25.8298 62.9352C25.8298 62.9261 25.8315 62.9173 25.8349 62.9089C25.8493 62.8733 25.8322 62.8326 25.7967 62.8178C18.3527 59.7068 13.1231 52.3567 13.1231 43.7845C13.1231 43.4244 12.8297 43.1368 12.4721 43.0943C9.83257 42.7805 7.91544 40.5799 7.91544 38.0207V29.3635C7.84878 26.3493 7.98626 15.7195 15.6644 8.31836C24.5924 -0.286757 38.7406 0.417318 48.9892 5.02088C49.3225 5.17086 49.3121 5.64788 48.9746 5.78745L46.3021 6.8873C45.9021 7.05186 45.9875 7.64137 46.4166 7.6872L47.7144 7.82676C53.9282 8.49126 59.7003 11.8658 63.279 17.4817C63.3748 17.6338 63.3477 17.865 63.2248 17.9963C61.0168 20.3314 59.7836 23.431 59.7836 26.6535V38.0207C59.7836 40.8433 57.4943 43.1325 54.6718 43.1325C54.5038 43.1325 54.3677 43.2687 54.3677 43.4367V43.7845C54.3677 52.3567 49.1381 59.7068 41.694 62.8178C41.6585 62.8326 41.6414 62.8733 41.6559 62.9089C41.6593 62.9173 41.661 62.9261 41.661 62.9351C41.6601 64.5532 41.4931 66.6403 43.0462 69.0271C44.5835 71.3934 47.254 72.9536 50.287 72.9557C58.8692 72.9578 65.8245 79.909 65.8245 88.4891Z" fill="url(#paint0_linearbs)"></path>
<path d="M63.2778 17.4827C63.3745 17.6345 63.3474 17.8645 63.2239 17.9953C61.0165 20.3321 59.7833 23.4306 59.7833 26.6533V38.0206C59.7833 40.6011 57.8392 43.1324 54.3673 43.1324V30.2654C54.3673 24.7432 49.8908 20.2667 44.3686 20.2667H23.1214C17.5992 20.2667 13.1228 24.7432 13.1228 30.2654V43.1324C10.1534 43.1324 7.9151 40.7859 7.9151 38.0206V29.3634C7.84844 26.3492 7.98593 15.7194 15.6641 8.31824C24.5917 -0.287085 38.7411 0.417407 48.9883 5.02139C49.3218 5.17116 49.3128 5.64839 48.9747 5.78753L46.3019 6.88781C45.9024 7.05237 45.9866 7.64125 46.4161 7.68728L47.7143 7.82664C53.9289 8.49051 59.6996 11.8651 63.2778 17.4827Z" fill="#010A63"></path>
<path d="M54.3676 43.7846C54.3676 55.1781 45.1297 64.4069 33.7453 64.4069C23.0192 64.4069 13.123 56.0682 13.123 43.1326V30.2655C13.123 24.7433 17.5995 20.2668 23.1217 20.2668H44.3689C49.8911 20.2668 54.3676 24.7433 54.3676 30.2655V43.7846Z" fill="url(#paint1_linearbs)"></path>
<path opacity="0.2" d="M29.076 57.1011C32.4666 59.2223 29.7929 64.4243 26.0813 62.9345C18.4503 59.8716 13.123 52.435 13.123 43.7845V30.2655C13.123 28.1649 13.7709 26.2156 14.8776 24.6062C16.2345 22.6329 19.3722 23.5047 19.3722 26.0993V39.6184C19.3722 47.2236 23.37 53.5312 29.076 57.1011Z" fill="#FFF3E4"></path>
<path opacity="0.2" d="M41.8964 66.3419C36.7644 68.4902 31.1245 68.6568 25.5944 66.3419C25.8768 65.17 25.8297 64.4109 25.8297 62.9216L25.861 62.8445C30.8774 64.9267 36.6035 64.9309 41.6298 62.8445L41.661 62.9216C41.661 64.4116 41.6139 65.1704 41.8964 66.3419Z" fill="#FFF3E4"></path>
<path opacity="0.2" d="M41.8939 77.9876C42.6642 78.2298 43.4904 78.3633 44.3761 78.371C52.9783 78.4469 59.9919 85.2487 59.9919 93.8513V95.4172C59.9919 97.0278 61.2976 98.3334 62.9082 98.3334H64.1581C65.0784 98.3334 65.8245 97.5873 65.8245 96.667V88.4889C65.8245 79.9086 58.8681 72.9586 50.288 72.9555C47.2542 72.9545 44.5831 71.3924 43.0463 69.0269C42.4268 69.556 41.7635 70.0315 41.0648 70.4479C37.9917 72.2791 38.4814 76.9146 41.8939 77.9876Z" fill="#FFF3E4"></path>
<path d="M48.9745 5.78745C46.5253 6.79544 46.1762 7.0177 45.3275 6.88605C31.6472 4.7655 19.6446 10.4258 15.5685 23.7143V23.7163C14.0437 25.4703 13.123 27.7616 13.123 30.2655V38.0817C13.123 41.4538 7.91535 41.6886 7.91535 38.0207V29.3635C7.84869 26.3493 7.98617 15.7195 15.6643 8.31836C24.5923 -0.286757 38.7405 0.417318 48.9891 5.02088C49.3224 5.17086 49.312 5.64788 48.9745 5.78745Z" fill="#3060A7"></path>
<defs>
<linearGradient id="paint0_linearbs" x1="33.7454" y1="1.66797" x2="33.7454" y2="98.3336" gradientUnits="userSpaceOnUse">
<stop offset="0.151042" stop-color="#00EEFF"></stop>
<stop offset="0.604167" stop-color="#4814FF"></stop>
<stop offset="1" stop-color="#A300DC" stop-opacity="0.53"></stop>
</linearGradient>
<linearGradient id="paint1_linearbs" x1="33.7453" y1="20.2668" x2="33.7453" y2="64.4069" gradientUnits="userSpaceOnUse">
<stop offset="0.151042" stop-color="#00EEFF"></stop>
<stop offset="0.604167" stop-color="#4814FF"></stop>
<stop offset="1" stop-color="#A300DC" stop-opacity="0.53"></stop>
</linearGradient>
</defs>
</svg>