<svg width="22" height="22" viewBox="0 0 22 22" fill="none" xmlns="http://www.w3.org/2000/svg">
<path fill-rule="evenodd" clip-rule="evenodd" d="M0 11.0001C0 4.93467 4.9346 0 11 0C17.0654 0 22 4.93467 22 11.0001C22 17.0655 17.0654 22 11 22C4.9346 22 0 17.0655 0 11.0001ZM2 11.0001C2 15.9627 6.03733 20 11 20C15.9626 20 20 15.9627 20 11.0001C20 6.03747 15.9627 2 11 2C6.03733 2 2 6.03747 2 11.0001Z" fill="#763BD2"></path>
<path d="M10.5 4C9.67288 4 9 4.6732 9 5.50067C9 6.3274 9.67288 7 10.5 7C11.3271 7 12 6.3274 12 5.50067C12 4.6732 11.3271 4 10.5 4Z" fill="#8CC8F1"></path>
<path d="M11 9C10.4477 9 10 9.44773 10 10V16C10 16.5523 10.4477 17 11 17C11.5523 17 12 16.5523 12 16V10C12 9.44773 11.5523 9 11 9Z" fill="#8CC8F1"></path>
</svg>