<svg width="40" height="40" viewBox="0 0 32 32" fill="none" xmlns="http://www.w3.org/2000/svg">
<rect width="32" height="32" rx="8" fill="url(#paint0_linear)"/>
<path d="M22.2378 10.1373C21.0905 9.6109 19.8602 9.22306 18.5739 9.00093C18.5505 8.99664 18.5271 9.00736 18.515 9.02879C18.3568 9.3102 18.1815 9.67732 18.0588 9.96588C16.6753 9.75875 15.2989 9.75875 13.9437 9.96588C13.821 9.67091 13.6394 9.3102 13.4804 9.02879C13.4684 9.00807 13.445 8.99736 13.4215 9.00093C12.1359 9.22235 10.9057 9.61019 9.7577 10.1373C9.74776 10.1416 9.73924 10.1487 9.73359 10.158C7.40004 13.6443 6.76079 17.0449 7.07439 20.4033C7.0758 20.4197 7.08503 20.4354 7.0978 20.4454C8.63741 21.5761 10.1288 22.2625 11.5925 22.7175C11.6159 22.7246 11.6407 22.716 11.6556 22.6967C12.0018 22.2239 12.3105 21.7254 12.5751 21.2011C12.5907 21.1704 12.5758 21.134 12.5439 21.1218C12.0543 20.9361 11.5882 20.7097 11.1398 20.4526C11.1043 20.4319 11.1015 20.3811 11.1341 20.3568C11.2285 20.2861 11.3229 20.2126 11.413 20.1383C11.4293 20.1247 11.452 20.1219 11.4711 20.1304C14.417 21.4754 17.6062 21.4754 20.5172 20.1304C20.5364 20.1211 20.5591 20.124 20.5761 20.1376C20.6662 20.2119 20.7606 20.2861 20.8557 20.3568C20.8883 20.3811 20.8862 20.4319 20.8507 20.4526C20.4023 20.7147 19.9361 20.9361 19.4459 21.1211C19.414 21.1333 19.3998 21.1704 19.4154 21.2011C19.6857 21.7246 19.9943 22.2232 20.3342 22.696C20.3484 22.716 20.3739 22.7246 20.3973 22.7175C21.8681 22.2625 23.3595 21.5761 24.8991 20.4454C24.9126 20.4354 24.9211 20.4204 24.9225 20.404C25.2978 16.5213 24.2939 13.1486 22.2612 10.1587C22.2562 10.1487 22.2477 10.1416 22.2378 10.1373ZM13.015 18.3584C12.1281 18.3584 11.3973 17.5441 11.3973 16.5442C11.3973 15.5442 12.114 14.73 13.015 14.73C13.9232 14.73 14.6469 15.5514 14.6327 16.5442C14.6327 17.5441 13.9161 18.3584 13.015 18.3584ZM18.9961 18.3584C18.1092 18.3584 17.3784 17.5441 17.3784 16.5442C17.3784 15.5442 18.095 14.73 18.9961 14.73C19.9042 14.73 20.6279 15.5514 20.6137 16.5442C20.6137 17.5441 19.9042 18.3584 18.9961 18.3584Z" fill="#00010D"/>
<defs>
<linearGradient id="paint0_linear" x1="-3.2" y1="18.6667" x2="26.1333" y2="34.6667" gradientUnits="userSpaceOnUse">
<stop stop-color="#00D5FF"/>
<stop offset="0.581619" stop-color="#3A4AFF"/>
<stop offset="1" stop-color="#7E20FF"/>
</linearGradient>
</defs>
</svg>
