<svg width="100%" height="409" viewBox="0 0 411 409" fill="none" xmlns="http://www.w3.org/2000/svg">
<circle cx="205" cy="204" r="165" stroke="url(#paint0_linear700)" stroke-width="3" stroke-linecap="round" stroke-linejoin="round"></circle>
<circle cx="205.5" cy="203.5" r="152.5" stroke="url(#paint1_linear700)" stroke-width="3" stroke-linecap="round" stroke-linejoin="round"></circle>
<circle cx="205" cy="204" r="178" stroke="url(#paint2_linear700)" stroke-width="3" stroke-linecap="round" stroke-linejoin="round"></circle>
<circle cx="205" cy="204" r="191" stroke="url(#paint3_linear700)" stroke-width="3" stroke-linecap="round" stroke-linejoin="round"></circle>
<path d="M409 205.5C409 317.89 317.89 407 205.5 407C93.1101 407 2 315.89 2 203.5C2 91.1101 93.1101 2 205.5 2C317.89 2 409 93.1101 409 205.5Z" stroke="url(#paint4_linear700)" stroke-width="3" stroke-linecap="round" stroke-linejoin="round"></path>
<defs>
<linearGradient id="paint0_linear700" x1="40.4061" y1="292.657" x2="217.72" y2="292.657" gradientUnits="userSpaceOnUse">
<stop stop-color="#00D5FF"></stop>
<stop offset="0.379352" stop-color="#3A4AFF"></stop>
<stop offset="1" stop-color="#7E20FF"></stop>
</linearGradient>
<linearGradient id="paint1_linear700" x1="53.3754" y1="285.44" x2="217.256" y2="285.44" gradientUnits="userSpaceOnUse">
<stop stop-color="#00D5FF"></stop>
<stop offset="0.379352" stop-color="#3A4AFF"></stop>
<stop offset="1" stop-color="#7E20FF"></stop>
</linearGradient>
<linearGradient id="paint2_linear700" x1="27.4381" y1="299.642" x2="218.722" y2="299.642" gradientUnits="userSpaceOnUse">
<stop stop-color="#00D5FF"></stop>
<stop offset="0.379352" stop-color="#3A4AFF"></stop>
<stop offset="1" stop-color="#7E20FF"></stop>
</linearGradient>
<linearGradient id="paint3_linear700" x1="14.4701" y1="306.627" x2="219.724" y2="306.627" gradientUnits="userSpaceOnUse">
<stop stop-color="#00D5FF"></stop>
<stop offset="0.379352" stop-color="#3A4AFF"></stop>
<stop offset="1" stop-color="#7E20FF"></stop>
</linearGradient>
<linearGradient id="paint4_linear700" x1="2.50089" y1="312.843" x2="221.188" y2="312.843" gradientUnits="userSpaceOnUse">
<stop stop-color="#00D5FF"></stop>
<stop offset="0.379352" stop-color="#3A4AFF"></stop>
<stop offset="1" stop-color="#7E20FF"></stop>
</linearGradient>
</defs>
</svg>
