<svg width="21" height="24" viewBox="0 0 21 24" fill="none" xmlns="http://www.w3.org/2000/svg">
    <path d="M8.16974 5.45839C7.90982 5.42126 7.89744 5.40888 8.02121 5.39651C8.25639 5.35937 8.801 5.40888 9.1847 5.49553C10.0759 5.70594 10.8804 6.25055 11.7345 7.20362L11.9573 7.46355L12.2791 7.41404C13.653 7.19125 15.064 7.36453 16.2399 7.90914C16.5617 8.05767 17.0692 8.35473 17.1311 8.429C17.1558 8.45375 17.1929 8.61466 17.2177 8.77557C17.3043 9.35731 17.2672 9.79052 17.0815 10.1247C16.9825 10.3104 16.9825 10.3599 17.0444 10.5208C17.0939 10.6446 17.2425 10.7312 17.3786 10.7312C17.6757 10.7312 17.9851 10.2609 18.1336 9.60486L18.1955 9.34493L18.3069 9.46871C18.9382 10.1742 19.4333 11.152 19.5075 11.8452L19.5323 12.0308L19.4209 11.8699C19.2352 11.5853 19.0619 11.3996 18.8268 11.2387C18.4059 10.954 17.9604 10.8674 16.7845 10.8055C15.72 10.7436 15.1135 10.6569 14.5194 10.4589C13.5044 10.1247 12.9846 9.6915 11.784 8.0948C11.2517 7.38929 10.9175 7.00558 10.5834 6.68377C9.85308 5.97825 9.12281 5.60692 8.16974 5.45839Z" fill="#FF007A"/>
    <path d="M17.3909 7.0305C17.4157 6.56015 17.4776 6.25072 17.6137 5.96603C17.6632 5.85464 17.7127 5.75562 17.7251 5.75562C17.7375 5.75562 17.7127 5.84226 17.6756 5.94128C17.5766 6.21358 17.5642 6.59729 17.6261 7.0305C17.7127 7.58749 17.7499 7.66175 18.344 8.26825C18.6163 8.55293 18.9381 8.91188 19.0619 9.06041L19.2723 9.33272L19.0619 9.13468C18.802 8.88713 18.2078 8.41678 18.0717 8.35489C17.985 8.30538 17.9727 8.30538 17.9108 8.36727C17.8613 8.41678 17.8489 8.49105 17.8489 8.85C17.8365 9.40698 17.7622 9.75355 17.5766 10.1125C17.4776 10.2982 17.4652 10.261 17.5518 10.0506C17.6137 9.88971 17.6261 9.81544 17.6261 9.28321C17.6261 8.20636 17.5023 7.94644 16.7473 7.51322C16.5616 7.40183 16.2398 7.24092 16.0541 7.15427C15.8561 7.06763 15.7076 6.99337 15.7199 6.99337C15.7447 6.96861 16.475 7.17903 16.7597 7.30281C17.1929 7.47609 17.2671 7.48847 17.3167 7.47609C17.3538 7.43896 17.3785 7.33994 17.3909 7.0305Z" fill="#FF007A"/>
    <path d="M8.67726 8.87495C8.15741 8.15705 7.82321 7.04308 7.89748 6.21379L7.92223 5.95386L8.04601 5.97861C8.2688 6.01575 8.65251 6.16428 8.83817 6.27567C9.33327 6.57273 9.55606 6.98119 9.76648 7.99615C9.82837 8.29321 9.91501 8.63978 9.95214 8.75117C10.014 8.93684 10.2492 9.37005 10.4472 9.64235C10.5834 9.84039 10.4968 9.93941 10.1873 9.91466C9.71697 9.86515 9.08572 9.43194 8.67726 8.87495Z" fill="#FF007A"/>
    <path d="M16.7599 14.2589C14.3091 13.2687 13.4427 12.4146 13.4427 10.9665C13.4427 10.756 13.4551 10.5828 13.4551 10.5828C13.4674 10.5828 13.5541 10.657 13.6655 10.7437C14.1606 11.1398 14.7176 11.313 16.2648 11.5358C17.1683 11.672 17.6882 11.771 18.1585 11.9319C19.6562 12.427 20.5845 13.442 20.8073 14.8159C20.8692 15.2119 20.8321 15.967 20.733 16.3631C20.6464 16.6725 20.3988 17.2419 20.337 17.2542C20.3246 17.2542 20.2998 17.1924 20.2998 17.0933C20.2751 16.5735 20.0151 16.0784 19.5819 15.6947C19.0621 15.2491 18.3937 14.9149 16.7599 14.2589Z" fill="#FF007A"/>
    <path d="M15.0269 14.6677C15.0021 14.482 14.9402 14.2468 14.9031 14.1478L14.8412 13.9622L14.9526 14.0983C15.1135 14.284 15.2373 14.5068 15.3487 14.8162C15.4353 15.0514 15.4353 15.1256 15.4353 15.5093C15.4353 15.8807 15.423 15.9673 15.3487 16.1777C15.2249 16.5119 15.0764 16.7471 14.8288 17.007C14.3832 17.465 13.8015 17.7125 12.9722 17.8239C12.8237 17.8363 12.4028 17.8735 12.0315 17.8982C11.1032 17.9477 10.4843 18.0467 9.92734 18.2448C9.85307 18.2695 9.77881 18.2943 9.76643 18.2819C9.74167 18.2572 10.1254 18.0344 10.4348 17.8858C10.868 17.6754 11.3136 17.564 12.2914 17.3907C12.7742 17.3165 13.2693 17.2174 13.393 17.1679C14.6184 16.7842 15.2249 15.8312 15.0269 14.6677Z" fill="#FF007A"/>
    <path d="M16.1531 16.6602C15.8313 15.9547 15.757 15.2863 15.9303 14.655C15.9551 14.5931 15.9798 14.5312 16.0046 14.5312C16.0293 14.5312 16.1036 14.5684 16.1779 14.6179C16.3264 14.7169 16.6358 14.8902 17.428 15.3234C18.4306 15.868 18.9999 16.2889 19.396 16.7716C19.7426 17.1924 19.953 17.6751 20.052 18.2693C20.1139 18.6035 20.0768 19.408 19.9902 19.7422C19.7178 20.7943 19.099 21.6359 18.1954 22.1187C18.0593 22.1929 17.9479 22.2424 17.9355 22.2424C17.9231 22.2424 17.9726 22.1187 18.0469 21.9701C18.3439 21.3389 18.3811 20.7324 18.1583 20.0516C18.0221 19.6308 17.7374 19.1233 17.1681 18.2693C16.4873 17.2791 16.3264 17.0191 16.1531 16.6602Z" fill="#FF007A"/>
    <path d="M6.93211 20.4477C7.84804 19.6803 8.9744 19.1357 10.0141 18.9624C10.4597 18.8881 11.2023 18.9129 11.6108 19.0243C12.2668 19.1975 12.8609 19.5689 13.1704 20.0268C13.4674 20.4724 13.6036 20.8561 13.7397 21.7102C13.7892 22.0444 13.8511 22.3909 13.8635 22.4652C13.9625 22.9108 14.1606 23.2574 14.4081 23.443C14.7918 23.7277 15.4602 23.7401 16.1162 23.4925C16.2276 23.4554 16.3266 23.4183 16.3266 23.4306C16.3514 23.4554 16.0172 23.6782 15.7944 23.7896C15.485 23.9505 15.2374 24 14.9032 24C14.3091 24 13.8016 23.6906 13.3932 23.0717C13.3065 22.9479 13.1332 22.589 12.9847 22.2548C12.5515 21.2522 12.3287 20.9551 11.8212 20.621C11.3756 20.3363 10.8063 20.2744 10.3731 20.4848C9.80369 20.7571 9.65516 21.4874 10.0512 21.933C10.2121 22.1186 10.5092 22.2672 10.7568 22.3043C11.2147 22.3662 11.6108 22.0072 11.6108 21.5493C11.6108 21.2522 11.4994 21.0789 11.2023 20.9428C10.8063 20.7695 10.3731 20.9675 10.3854 21.3512C10.3854 21.5121 10.4597 21.6112 10.6206 21.6854C10.7196 21.7349 10.7196 21.7349 10.6454 21.7226C10.2864 21.6483 10.1998 21.2027 10.4845 20.918C10.831 20.5714 11.5613 20.72 11.8088 21.2027C11.9079 21.4007 11.9202 21.7968 11.8336 22.0444C11.6232 22.589 11.0291 22.8737 10.4226 22.7128C10.0141 22.6014 9.84082 22.49 9.34572 21.9825C8.4793 21.0913 8.1451 20.918 6.90735 20.7324L6.67218 20.6952L6.93211 20.4477Z" fill="#FF007A"/>
    <path fill-rule="evenodd" clip-rule="evenodd" d="M0.421386 0.532233C3.30534 4.03507 7.74887 9.48117 7.97166 9.77823C8.15733 10.0258 8.08306 10.261 7.77362 10.4342C7.60034 10.5333 7.24139 10.6323 7.06811 10.6323C6.87007 10.6323 6.63489 10.5333 6.47399 10.3723C6.36259 10.261 5.87987 9.55543 4.79064 7.85971C3.96135 6.56008 3.25583 5.48323 3.24346 5.47086C3.19395 5.4461 3.19395 5.4461 4.704 8.1444C5.65707 9.84012 5.96651 10.4466 5.96651 10.5209C5.96651 10.6818 5.917 10.7684 5.71896 10.9912C5.38477 11.3625 5.23624 11.7834 5.12484 12.6622C5.00106 13.64 4.66687 14.3331 3.7138 15.509C3.15681 16.2022 3.07017 16.3259 2.93402 16.6106C2.76073 16.9572 2.71122 17.1552 2.68647 17.6008C2.66171 18.0712 2.71122 18.3682 2.84738 18.8138C2.97115 19.2099 3.1073 19.4698 3.4415 19.9773C3.72618 20.4229 3.89946 20.7571 3.89946 20.8808C3.89946 20.9799 3.92422 20.9799 4.36981 20.8808C5.43427 20.6333 6.31308 20.2125 6.7958 19.6926C7.09286 19.3708 7.16713 19.1975 7.16713 18.7519C7.16713 18.4672 7.15475 18.4053 7.08048 18.2321C6.95671 17.9598 6.72154 17.737 6.21406 17.3904C5.54567 16.9324 5.26099 16.5611 5.18673 16.066C5.12484 15.6452 5.1991 15.3605 5.57043 14.5807C5.95413 13.7762 6.05315 13.442 6.11504 12.6251C6.15217 12.1052 6.21406 11.8948 6.36259 11.7339C6.5235 11.5606 6.65965 11.4987 7.04335 11.4492C7.6746 11.3625 8.08306 11.2016 8.40488 10.8922C8.68956 10.6323 8.81333 10.3723 8.82571 9.98864L8.83809 9.70396L8.67718 9.53068C8.09544 8.86229 0.0376831 0 0.000550557 0C-0.0118269 0 0.186213 0.235173 0.421386 0.532233ZM4.22128 18.133C4.35743 17.8979 4.28317 17.6008 4.06037 17.4523C3.84995 17.3161 3.52814 17.378 3.52814 17.5637C3.52814 17.6132 3.55289 17.6627 3.62716 17.6875C3.73856 17.7493 3.75093 17.8112 3.66429 17.9474C3.57765 18.0835 3.57765 18.2073 3.68905 18.294C3.86233 18.4301 4.0975 18.3558 4.22128 18.133Z" fill="#FF007A"/>
    <path fill-rule="evenodd" clip-rule="evenodd" d="M9.23466 11.6226C8.93744 11.7092 8.65261 12.0312 8.56593 12.3532C8.51639 12.5513 8.54116 12.9105 8.62785 13.0219C8.76407 13.1953 8.88791 13.2448 9.23466 13.2448C9.91577 13.2448 10.4978 12.9476 10.5597 12.5885C10.6216 12.2913 10.3616 11.8826 10.0025 11.6969C9.8167 11.5978 9.4328 11.5606 9.23466 11.6226ZM10.0272 12.2417C10.1263 12.0931 10.0891 11.9322 9.90338 11.8207C9.56902 11.6102 9.06128 11.7835 9.06128 12.1055C9.06128 12.2665 9.32134 12.4399 9.56902 12.4399C9.73001 12.4399 9.95292 12.3408 10.0272 12.2417Z" fill="#FF007A"/>
</svg>
