<svg width="100%" height="45" viewBox="0 0 190 45" fill="none"
        xmlns="http://www.w3.org/2000/svg">
    <path d="M0 4C0 1.79086 1.79086 0 4 0H11C13.2091 0 15 1.79086 15 4V41C15 43.2091 13.2091 45 11 45H4C1.79086 45 0 43.2091 0 41V4Z"
            fill="url(#usdcpaint0_linear)"/>
    <path d="M25 4C25 1.79086 26.7909 0 29 0H36C38.2091 0 40 1.79086 40 4V41C40 43.2091 38.2091 45 36 45H29C26.7909 45 25 43.2091 25 41V4Z"
            fill="url(#usdcpaint1_linear)"/>
    <path d="M50 4C50 1.79086 51.7909 0 54 0H61C63.2091 0 65 1.79086 65 4V41C65 43.2091 63.2091 45 61 45H54C51.7909 45 50 43.2091 50 41V4Z"
            fill="url(#usdcpaint2_linear)"/>
    <path d="M75 4C75 1.79086 76.7909 0 79 0H86C88.2091 0 90 1.79086 90 4V41C90 43.2091 88.2091 45 86 45H79C76.7909 45 75 43.2091 75 41V4Z"
            fill="url(#usdcpaint3_linear)"/>
    <path d="M100 4C100 1.79086 101.791 0 104 0H111C113.209 0 115 1.79086 115 4V41C115 43.2091 113.209 45 111 45H104C101.791 45 100 43.2091 100 41V4Z"
            fill="url(#usdcpaint4_linear)"/>
    <path d="M125 4C125 1.79086 126.791 0 129 0H136C138.209 0 140 1.79086 140 4V41C140 43.2091 138.209 45 136 45H129C126.791 45 125 43.2091 125 41V4Z"
            fill="url(#usdcpaint5_linear)"/>
    <path d="M150 4C150 1.79086 151.791 0 154 0H161C163.209 0 165 1.79086 165 4V41C165 43.2091 163.209 45 161 45H154C151.791 45 150 43.2091 150 41V4Z"
            fill="url(#usdcpaint6_linear)"/>
    <rect opacity="0.2" x="175" width="15" height="45" rx="4" fill="white"/>
    <defs>
        <linearGradient id="usdcpaint0_linear" x1="165" y1="22"
                        x2="-1.22601e-07" y2="22"
                        gradientUnits="userSpaceOnUse">
            <stop offset="0.0416667" stop-color="#A300DC" stop-opacity="0.53"/>
            <stop offset="0.364583" stop-color="#4814FF"/>
            <stop offset="0.838542" stop-color="#00EEFF"/>
        </linearGradient>
        <linearGradient id="usdcpaint1_linear" x1="165" y1="22"
                        x2="-1.22601e-07" y2="22"
                        gradientUnits="userSpaceOnUse">
            <stop offset="0.0416667" stop-color="#A300DC" stop-opacity="0.53"/>
            <stop offset="0.364583" stop-color="#4814FF"/>
            <stop offset="0.838542" stop-color="#00EEFF"/>
        </linearGradient>
        <linearGradient id="usdcpaint2_linear" x1="165" y1="22"
                        x2="-1.22601e-07" y2="22"
                        gradientUnits="userSpaceOnUse">
            <stop offset="0.0416667" stop-color="#A300DC" stop-opacity="0.53"/>
            <stop offset="0.364583" stop-color="#4814FF"/>
            <stop offset="0.838542" stop-color="#00EEFF"/>
        </linearGradient>
        <linearGradient id="usdcpaint3_linear" x1="165" y1="22"
                        x2="-1.22601e-07" y2="22"
                        gradientUnits="userSpaceOnUse">
            <stop offset="0.0416667" stop-color="#A300DC" stop-opacity="0.53"/>
            <stop offset="0.364583" stop-color="#4814FF"/>
            <stop offset="0.838542" stop-color="#00EEFF"/>
        </linearGradient>
        <linearGradient id="usdcpaint4_linear" x1="165" y1="22"
                        x2="-1.22601e-07" y2="22"
                        gradientUnits="userSpaceOnUse">
            <stop offset="0.0416667" stop-color="#A300DC" stop-opacity="0.53"/>
            <stop offset="0.364583" stop-color="#4814FF"/>
            <stop offset="0.838542" stop-color="#00EEFF"/>
        </linearGradient>
        <linearGradient id="usdcpaint5_linear" x1="165" y1="22"
                        x2="-1.22601e-07" y2="22"
                        gradientUnits="userSpaceOnUse">
            <stop offset="0.0416667" stop-color="#A300DC" stop-opacity="0.53"/>
            <stop offset="0.364583" stop-color="#4814FF"/>
            <stop offset="0.838542" stop-color="#00EEFF"/>
        </linearGradient>
        <linearGradient id="usdcpaint6_linear" x1="165" y1="22"
                        x2="-1.22601e-07" y2="22"
                        gradientUnits="userSpaceOnUse">
            <stop offset="0.0416667" stop-color="#A300DC" stop-opacity="0.53"/>
            <stop offset="0.364583" stop-color="#4814FF"/>
            <stop offset="0.838542" stop-color="#00EEFF"/>
        </linearGradient>
    </defs>
</svg>