<svg width="80" height="80" viewBox="0 0 80 80" fill="none" xmlns="http://www.w3.org/2000/svg">
<path d="M38.2688 14.9793C50.0686 21.7914 59.611 38.3212 59.5733 51.9038C59.5345 65.4423 49.9275 70.9155 38.1301 64.1028C26.3254 57.2882 16.7842 40.7603 16.8224 27.2206C16.8608 13.641 26.469 8.16657 38.2688 14.9793Z" stroke="url(#paint0_radial)" stroke-width="0.00500468" stroke-miterlimit="10"/>
<path d="M33.6656 25.0215L30.7344 26.7276C32.6631 25.6041 35.2884 25.7511 38.2315 27.4423C44.039 30.8018 48.7306 38.9372 48.6987 45.6303C48.6942 48.9375 47.5244 51.2643 45.6465 52.36L48.5777 50.6538C50.4556 49.5582 51.6254 47.2314 51.6299 43.9242C51.6618 37.231 46.9702 29.0957 41.1373 25.7501C39.4399 24.7639 37.8408 24.3187 36.4139 24.3078C35.3893 24.3077 34.4647 24.5502 33.6656 25.0215Z" fill="url(#paint1_radial)"/>
<g opacity="0.3">
<g opacity="0.3">
<path opacity="0.3" d="M48.4585 48.1239L51.3413 46.5797C51.2275 47.0519 51.0846 47.4932 50.911 47.8993L48.0541 49.4282C48.2162 49.0227 48.3544 48.5909 48.4585 48.1239Z" fill="white"/>
</g>
<g opacity="0.3">
<path opacity="0.3" d="M42.5078 30.9634L45.5115 29.3551C45.7321 29.5982 45.9529 29.8404 46.1642 30.0947L43.1591 31.703C42.9467 31.4493 42.7286 31.2043 42.5078 30.9634Z" fill="white"/>
</g>
<g opacity="0.3">
<path opacity="0.3" d="M43.5726 32.2359L46.5705 30.6311C46.77 30.8855 46.9673 31.141 47.158 31.4049L44.1657 33.006C43.974 32.7426 43.7734 32.4902 43.5726 32.2359Z" fill="white"/>
</g>
<g opacity="0.3">
<path opacity="0.3" d="M36.6543 26.6914L39.7218 25.049C40.0737 25.1967 40.4312 25.3693 40.7937 25.5641L37.7415 27.1976C37.3739 27.0048 37.0118 26.8354 36.6543 26.6914Z" fill="white"/>
</g>
<g opacity="0.3">
<path opacity="0.3" d="M44.5552 33.5604L47.5471 31.9598C47.7281 32.2241 47.9035 32.4921 48.0748 32.7642L45.089 34.363C44.9168 34.0905 44.7376 33.8246 44.5552 33.5604Z" fill="white"/>
</g>
<g opacity="0.3">
<path opacity="0.3" d="M34.3678 26.0721L37.4874 24.4022C37.9457 24.4707 38.4166 24.5742 38.9032 24.7319L35.8133 26.3859C35.3173 26.234 34.8349 26.1296 34.3678 26.0721Z" fill="white"/>
</g>
<g opacity="0.3">
<path opacity="0.3" d="M39.9633 28.623L42.9923 27.002C43.2618 27.2119 43.5266 27.4349 43.7884 27.6642L40.7684 29.2796C40.5049 29.0512 40.2356 28.8328 39.9633 28.623Z" fill="white"/>
</g>
<g opacity="0.3">
<path opacity="0.3" d="M41.3052 29.7533L44.3214 28.1396C44.5623 28.3663 44.7962 28.6071 45.0298 28.8474L42.0185 30.4598C41.7827 30.2193 41.548 29.9796 41.3052 29.7533Z" fill="white"/>
</g>
<g opacity="0.3">
<path opacity="0.3" d="M38.4381 27.584L41.4776 25.9581C41.7847 26.1459 42.0895 26.3439 42.3894 26.5571L39.3618 28.178C39.0584 27.9646 38.7495 27.7708 38.4381 27.584Z" fill="white"/>
</g>
<g opacity="0.3">
<path opacity="0.3" d="M48.419 42.591L51.3674 41.0132C51.4272 41.3513 51.4745 41.6878 51.5153 42.0229L48.5762 43.5958C48.5337 43.263 48.4824 42.9279 48.419 42.591Z" fill="white"/>
</g>
<g opacity="0.3">
<path opacity="0.3" d="M46.2317 36.3592L49.2119 34.7642C49.3576 35.0508 49.4903 35.3416 49.6251 35.6313L46.6504 37.2247C46.5153 36.9345 46.3788 36.6458 46.2317 36.3592Z" fill="white"/>
</g>
<g opacity="0.3">
<path opacity="0.3" d="M45.4362 34.937L48.4218 33.339C48.5856 33.6138 48.7394 33.8933 48.8921 34.1748L45.9114 35.7688C45.7576 35.4893 45.6005 35.2115 45.4362 34.937Z" fill="white"/>
</g>
<g opacity="0.3">
<path opacity="0.3" d="M47.5463 50.4611L50.3553 48.9581C49.8768 49.6863 49.2793 50.2617 48.5818 50.6672L46.0678 52.1273L46.0488 52.0929C46.6328 51.6751 47.1383 51.1322 47.5463 50.4611Z" fill="white"/>
</g>
<g opacity="0.3">
<path opacity="0.3" d="M31.5082 26.3563L31.4727 26.2931L33.6682 25.0165C34.4148 24.5834 35.2767 24.3497 36.2196 24.3171L33.0057 26.0373C32.4781 26.0802 31.9745 26.1815 31.5082 26.3563Z" fill="white"/>
</g>
<g opacity="0.3">
<path opacity="0.3" d="M48.6947 46.1435L51.6125 44.5828C51.5916 44.9808 51.553 45.3639 51.4973 45.7318L48.5957 47.2839C48.6461 46.9202 48.6787 46.5389 48.6947 46.1435Z" fill="white"/>
</g>
<g opacity="0.3">
<path opacity="0.3" d="M46.9525 37.8324L49.9213 36.2434C50.0487 36.5412 50.1657 36.839 50.2813 37.1383L47.3125 38.7273C47.196 38.4278 47.0815 38.128 46.9525 37.8324Z" fill="white"/>
</g>
<g opacity="0.3">
<path opacity="0.3" d="M48.6706 44.3117L51.6034 42.7413C51.6305 43.0998 51.6448 43.4554 51.6464 43.8067L48.7162 45.3742C48.7116 45.0225 48.7012 44.669 48.6706 44.3117Z" fill="white"/>
</g>
<g opacity="0.3">
<path opacity="0.3" d="M48.0498 40.9443L51.0052 39.3627C51.0918 39.683 51.1732 40.0054 51.2424 40.3246L48.2949 41.9028C48.2235 41.5834 48.138 41.2638 48.0498 40.9443Z" fill="white"/>
</g>
<g opacity="0.3">
<path opacity="0.3" d="M47.5438 39.3613L50.506 37.7768C50.614 38.0829 50.7218 38.3898 50.8151 38.6982L47.8535 40.2837C47.7578 39.9759 47.6532 39.6687 47.5438 39.3613Z" fill="white"/>
</g>
</g>
<path d="M27.6576 33.4762C27.6533 40.1418 32.352 48.2672 38.1419 51.6365C43.9644 54.9879 48.6805 52.2812 48.7026 45.6482C48.7217 38.932 44.023 30.8067 38.2331 27.4374C36.5143 26.4676 34.9477 26.0088 33.4975 25.9956C30.0651 26.0054 27.6671 28.76 27.6576 33.4762Z" fill="url(#paint2_radial)"/>
<path d="M31.5349 35.7164C31.5371 39.918 34.4915 45.0614 38.1657 47.1893C41.8267 49.2934 44.833 47.59 44.8308 43.3885C44.8523 39.1736 41.8847 34.0065 38.2237 31.9023C37.1373 31.2925 36.125 30.9838 35.2239 30.987C33.0439 30.9855 31.5491 32.7198 31.5349 35.7164Z" fill="url(#paint3_radial)"/>
<path d="M35.8912 7.16692L34.2833 8.10281C35.3413 7.48653 36.7814 7.56716 38.3958 8.49486C41.5814 10.3377 44.1549 14.8002 44.1374 18.4716C44.135 20.2858 43.4933 21.5621 42.4632 22.1631L44.0571 21.2348C45.1011 20.6262 45.7428 19.3499 45.7453 17.5357C45.7628 13.8643 43.1893 9.40176 39.9897 7.56661C39.0586 7.02564 38.1815 6.78141 37.3987 6.77548C36.8367 6.77542 36.3296 6.90845 35.8912 7.16692Z" fill="url(#paint4_radial)"/>
<g opacity="0.3">
<g opacity="0.3">
<path opacity="0.3" d="M43.9874 19.8399L45.5681 18.9933C45.5065 19.2525 45.4277 19.4951 45.3318 19.7177L43.7653 20.5558C43.8543 20.3335 43.9295 20.097 43.9874 19.8399Z" fill="white"/>
</g>
<g opacity="0.3">
<path opacity="0.3" d="M40.7283 10.4266L42.3767 9.54511C42.4975 9.67737 42.6189 9.81071 42.7344 9.94998L41.0864 10.832C40.9698 10.6933 40.8497 10.5586 40.7283 10.4266Z" fill="white"/>
</g>
<g opacity="0.3">
<path opacity="0.3" d="M41.3296 11.1248L42.9747 10.2437C43.0829 10.3833 43.1917 10.5241 43.2967 10.6683L41.6552 11.5468C41.5493 11.4024 41.44 11.2647 41.3296 11.1248Z" fill="white"/>
</g>
<g opacity="0.3">
<path opacity="0.3" d="M37.5212 8.08327L39.2044 7.18245C39.3974 7.26355 39.5929 7.3572 39.7916 7.46449L38.1184 8.36064C37.9165 8.25509 37.7171 8.16209 37.5212 8.08327Z" fill="white"/>
</g>
<g opacity="0.3">
<path opacity="0.3" d="M41.851 11.851L43.4926 10.9725C43.591 11.1188 43.6876 11.2655 43.7812 11.4144L42.144 12.2919C42.049 12.143 41.9508 11.9959 41.851 11.851Z" fill="white"/>
</g>
<g opacity="0.3">
<path opacity="0.3" d="M36.277 7.74364L37.9877 6.82788C38.2393 6.86505 38.4972 6.92182 38.7645 7.00906L37.0703 7.9153C36.7976 7.83233 36.5326 7.77522 36.277 7.74364Z" fill="white"/>
</g>
<g opacity="0.3">
<path opacity="0.3" d="M39.3454 9.14344L41.0065 8.25461C41.1543 8.36964 41.2999 8.49213 41.4433 8.61715L39.7874 9.50391C39.6418 9.37868 39.4946 9.25842 39.3454 9.14344Z" fill="white"/>
</g>
<g opacity="0.3">
<path opacity="0.3" d="M40.0682 9.76245L41.7218 8.87796C41.8545 9.00247 41.9833 9.13396 42.1107 9.26549L40.4592 10.1502C40.3307 10.0179 40.2011 9.88614 40.0682 9.76245Z" fill="white"/>
</g>
<g opacity="0.3">
<path opacity="0.3" d="M38.5037 8.57321L40.1714 7.68109C40.3394 7.78459 40.5065 7.89278 40.6709 8.0101L39.01 8.8993C38.8437 8.7823 38.6747 8.67581 38.5037 8.57321Z" fill="white"/>
</g>
<g opacity="0.3">
<path opacity="0.3" d="M43.978 16.8051L45.5956 15.9402C45.6278 16.1254 45.654 16.3097 45.6766 16.4938L44.0645 17.3558C44.0408 17.1736 44.013 16.9902 43.978 16.8051Z" fill="white"/>
</g>
<g opacity="0.3">
<path opacity="0.3" d="M42.7934 13.3869L44.4282 12.5115C44.5081 12.6684 44.5812 12.8283 44.6545 12.9874L43.0234 13.8608C42.9485 13.7026 42.8743 13.5433 42.7934 13.3869Z" fill="white"/>
</g>
<g opacity="0.3">
<path opacity="0.3" d="M42.3533 12.6059L43.9922 11.729C44.081 11.8805 44.1656 12.0335 44.25 12.1874L42.6151 13.0627C42.5302 12.9092 42.4439 12.7571 42.3533 12.6059Z" fill="white"/>
</g>
<g opacity="0.3">
<path opacity="0.3" d="M43.5037 21.1227L45.0447 20.2982C44.7815 20.6982 44.4539 21.0135 44.0717 21.2362L42.6927 22.0368L42.6816 22.0177C43.0025 21.7889 43.2798 21.4914 43.5037 21.1227Z" fill="white"/>
</g>
<g opacity="0.3">
<path opacity="0.3" d="M34.7013 7.89933L34.6816 7.86437L35.8859 7.16502C36.2957 6.92699 36.768 6.79817 37.2852 6.78038L35.5227 7.7245C35.2331 7.74781 34.9565 7.80363 34.7013 7.89933Z" fill="white"/>
</g>
<g opacity="0.3">
<path opacity="0.3" d="M44.1207 18.7542L45.7212 17.8978C45.7092 18.1171 45.6883 18.3266 45.658 18.5286L44.0664 19.3809C44.0941 19.1803 44.1119 18.9718 44.1207 18.7542Z" fill="white"/>
</g>
<g opacity="0.3">
<path opacity="0.3" d="M43.1663 14.195L44.7937 13.3239C44.8644 13.4872 44.9288 13.6503 44.9918 13.8149L43.3633 14.6865C43.3002 14.522 43.2367 14.3577 43.1663 14.195Z" fill="white"/>
</g>
<g opacity="0.3">
<path opacity="0.3" d="M44.1189 17.7483L45.7282 16.8875C45.7427 17.0836 45.7499 17.278 45.7517 17.4712L44.1445 18.3308C44.1417 18.1382 44.1355 17.9446 44.1189 17.7483Z" fill="white"/>
</g>
<g opacity="0.3">
<path opacity="0.3" d="M43.7701 15.9021L45.3918 15.0345C45.4389 15.2097 45.4838 15.386 45.5208 15.5617L43.9043 16.4272C43.8649 16.2521 43.8186 16.0772 43.7701 15.9021Z" fill="white"/>
</g>
<g opacity="0.3">
<path opacity="0.3" d="M43.4945 15.0337L45.1191 14.1637C45.1787 14.3322 45.2383 14.5007 45.2892 14.6697L43.6638 15.5394C43.6118 15.371 43.5555 15.2021 43.4945 15.0337Z" fill="white"/>
</g>
</g>
<path d="M32.6139 11.8058C32.6116 15.4621 35.189 19.9192 38.365 21.7673C41.5588 23.6057 44.1458 22.121 44.1758 18.4727C44.1684 14.7985 41.591 10.3414 38.415 8.49325C37.4722 7.96128 36.6128 7.70959 35.8173 7.70235C33.9345 7.70776 32.6371 9.20895 32.6139 11.8058Z" fill="url(#paint5_radial)"/>
<path d="M34.7299 13.0338C34.7312 15.3385 36.3518 18.1598 38.3672 19.3271C40.3754 20.4813 42.0245 19.5469 42.0233 17.2422C42.0351 14.9302 40.4072 12.0958 38.399 10.9416C37.8031 10.6071 37.2478 10.4378 36.7535 10.4395C35.5577 10.4387 34.7378 11.39 34.7299 13.0338Z" fill="url(#paint6_radial)"/>
<path d="M51.3111 22.6209L49.7032 23.5568C50.7612 22.9405 52.2013 23.0212 53.8157 23.9489C57.0013 25.7917 59.5748 30.2542 59.5573 33.9256C59.5549 35.7398 58.9132 37.0161 57.8831 37.6171L59.4909 36.6812C60.521 36.0802 61.1628 34.8039 61.1652 32.9897C61.1827 29.3183 58.6092 24.8558 55.4096 23.0206C54.4786 22.4796 53.6014 22.2354 52.8187 22.2295C52.2567 22.2294 51.7495 22.3625 51.3111 22.6209Z" fill="url(#paint7_radial)"/>
<g opacity="0.3">
<g opacity="0.3">
<path opacity="0.3" d="M59.4069 35.2942L60.9883 34.4476C60.9258 34.7066 60.8469 34.9492 60.7524 35.1716L59.1853 36.0098C59.2738 35.7878 59.3495 35.551 59.4069 35.2942Z" fill="white"/>
</g>
<g opacity="0.3">
<path opacity="0.3" d="M56.1504 25.8824L57.799 25.0002C57.9187 25.133 58.0396 25.2666 58.1563 25.4052L56.5077 26.2875C56.3913 26.1494 56.2709 26.0141 56.1504 25.8824Z" fill="white"/>
</g>
<g opacity="0.3">
<path opacity="0.3" d="M56.7495 26.58L58.3946 25.6989C58.5036 25.8388 58.6121 25.979 58.7166 26.1235L57.0756 27.0017C56.9697 26.8573 56.8602 26.7191 56.7495 26.58Z" fill="white"/>
</g>
<g opacity="0.3">
<path opacity="0.3" d="M52.9406 23.538L54.6229 22.6368C54.817 22.7186 55.0126 22.8122 55.2108 22.9197L53.5369 23.8157C53.336 23.7097 53.136 23.6171 52.9406 23.538Z" fill="white"/>
</g>
<g opacity="0.3">
<path opacity="0.3" d="M57.2711 27.3068L58.9126 26.4281C59.0119 26.5746 59.1082 26.7207 59.2013 26.8698L57.5644 27.7468C57.4691 27.5974 57.3715 27.4514 57.2711 27.3068Z" fill="white"/>
</g>
<g opacity="0.3">
<path opacity="0.3" d="M51.6771 23.1971L53.3878 22.2813C53.6394 22.3185 53.8976 22.3758 54.1654 22.4628L52.4704 23.3688C52.1986 23.2861 51.9335 23.2289 51.6771 23.1971Z" fill="white"/>
</g>
<g opacity="0.3">
<path opacity="0.3" d="M54.7653 24.5974L56.4264 23.7086C56.5743 23.8236 56.7198 23.9461 56.8633 24.0711L55.2073 24.9579C55.0617 24.8326 54.9145 24.7124 54.7653 24.5974Z" fill="white"/>
</g>
<g opacity="0.3">
<path opacity="0.3" d="M55.4879 25.2165L57.1419 24.3312C57.2744 24.4565 57.4024 24.5877 57.5309 24.72L55.8786 25.6044C55.75 25.4721 55.6212 25.3407 55.4879 25.2165Z" fill="white"/>
</g>
<g opacity="0.3">
<path opacity="0.3" d="M53.9236 24.0284L55.5913 23.1363C55.7591 23.2393 55.9273 23.3482 56.0913 23.465L54.4304 24.3542C54.2642 24.2372 54.0944 24.1305 53.9236 24.0284Z" fill="white"/>
</g>
<g opacity="0.3">
<path opacity="0.3" d="M59.3979 32.2596L61.0151 31.394C61.0472 31.58 61.074 31.7639 61.0967 31.948L59.4844 32.811C59.4612 32.6286 59.4322 32.4444 59.3979 32.2596Z" fill="white"/>
</g>
<g opacity="0.3">
<path opacity="0.3" d="M58.1916 28.8415L59.8268 27.9666C59.9074 28.1238 59.9796 28.2834 60.0538 28.4428L58.4219 29.316C58.3478 29.1566 58.2728 28.9984 58.1916 28.8415Z" fill="white"/>
</g>
<g opacity="0.3">
<path opacity="0.3" d="M57.7734 28.0605L59.4117 27.1836C59.5004 27.3351 59.5859 27.4884 59.6695 27.6419L58.035 28.5167C57.9503 28.3637 57.8632 28.2114 57.7734 28.0605Z" fill="white"/>
</g>
<g opacity="0.3">
<path opacity="0.3" d="M58.923 36.5767L60.464 35.7522C60.2014 36.1522 59.8739 36.4675 59.4917 36.6902L58.112 37.4908L58.1016 37.4718C58.4224 37.2429 58.6997 36.9448 58.923 36.5767Z" fill="white"/>
</g>
<g opacity="0.3">
<path opacity="0.3" d="M50.1206 23.3533L50.1016 23.3183L51.3052 22.6184C51.7156 22.3803 52.188 22.2521 52.7051 22.2343L50.942 23.1785C50.6525 23.2018 50.3764 23.2576 50.1206 23.3533Z" fill="white"/>
</g>
<g opacity="0.3">
<path opacity="0.3" d="M59.54 34.2085L61.1398 33.3521C61.1292 33.5714 61.1084 33.7809 61.0775 33.9832L59.486 34.8344C59.5131 34.6341 59.5309 34.4256 59.54 34.2085Z" fill="white"/>
</g>
<g opacity="0.3">
<path opacity="0.3" d="M58.5856 29.6493L60.2135 28.7777C60.2839 28.9404 60.348 29.1044 60.4116 29.2687L58.7829 30.14C58.7193 29.9757 58.656 29.812 58.5856 29.6493Z" fill="white"/>
</g>
<g opacity="0.3">
<path opacity="0.3" d="M59.5388 33.2035L61.1481 32.3427C61.1626 32.5388 61.1698 32.7332 61.1716 32.9264L59.5645 33.786C59.5616 33.5934 59.5557 33.399 59.5388 33.2035Z" fill="white"/>
</g>
<g opacity="0.3">
<path opacity="0.3" d="M59.1901 31.356L60.8117 30.4884C60.8588 30.6636 60.9029 30.8397 60.9407 31.0157L59.3242 31.8812C59.2848 31.7061 59.238 31.5315 59.1901 31.356Z" fill="white"/>
</g>
<g opacity="0.3">
<path opacity="0.3" d="M58.9146 30.4876L60.5394 29.6181C60.5982 29.7864 60.6577 29.9549 60.7091 30.1236L59.084 30.994C59.0313 30.8253 58.975 30.6564 58.9146 30.4876Z" fill="white"/>
</g>
</g>
<path d="M48.0124 27.261C48.01 30.9174 50.5875 35.3744 53.7634 37.2226C56.9573 39.061 59.5442 37.5763 59.5564 33.9378C59.5668 30.2537 56.9894 25.7967 53.8134 23.9485C52.8706 23.4165 52.0113 23.1649 51.2158 23.1576C49.333 23.163 48.0355 24.6642 48.0124 27.261Z" fill="url(#paint8_radial)"/>
<path d="M50.1303 28.489C50.1316 30.7938 51.7522 33.6151 53.7676 34.7824C55.7758 35.9366 57.4249 35.0022 57.4236 32.6975C57.4355 30.3855 55.8076 27.5511 53.7994 26.3969C53.2035 26.0624 52.6482 25.8931 52.1539 25.8948C50.9581 25.894 50.1382 26.8453 50.1303 28.489Z" fill="url(#paint9_radial)"/>
<path d="M56.9654 46.396L55.3575 47.3319C56.4155 46.7156 57.8556 46.7962 59.47 47.7239C62.6556 49.5667 65.2291 54.0292 65.2116 57.7007C65.2092 59.5148 64.5675 60.7911 63.5374 61.3921L65.1313 60.4639C66.1753 59.8552 66.817 58.5789 66.8195 56.7648C66.837 53.0933 64.2496 48.6384 61.0639 46.7956C60.1328 46.2547 59.2557 46.0105 58.473 46.0045C57.911 46.0045 57.4038 46.1375 56.9654 46.396Z" fill="url(#paint10_radial)"/>
<g opacity="0.3">
<g opacity="0.3">
<path opacity="0.3" d="M65.0619 59.0682L66.6426 58.2217C66.581 58.4808 66.5022 58.7235 66.4065 58.9452L64.8398 59.7841C64.9289 59.5618 65.004 59.3253 65.0619 59.0682Z" fill="white"/>
</g>
<g opacity="0.3">
<path opacity="0.3" d="M61.8041 49.6551L63.4527 48.7729C63.5736 48.9065 63.6944 49.0387 63.8111 49.1787L62.1617 50.0607C62.0459 49.9223 61.9255 49.7871 61.8041 49.6551Z" fill="white"/>
</g>
<g opacity="0.3">
<path opacity="0.3" d="M62.404 50.3524L64.0487 49.4721C64.1577 49.6121 64.2667 49.752 64.3712 49.8965L62.7294 50.7746C62.6238 50.6307 62.5149 50.4921 62.404 50.3524Z" fill="white"/>
</g>
<g opacity="0.3">
<path opacity="0.3" d="M58.595 47.3118L60.2779 46.4105C60.4712 46.4921 60.6671 46.5862 60.8658 46.6934L59.1917 47.5893C58.9903 47.4835 58.7904 47.3908 58.595 47.3118Z" fill="white"/>
</g>
<g opacity="0.3">
<path opacity="0.3" d="M62.9256 51.0792L64.5669 50.2015C64.6661 50.3467 64.7621 50.4937 64.856 50.6431L63.2187 51.5193C63.1238 51.3704 63.0257 51.2247 62.9256 51.0792Z" fill="white"/>
</g>
<g opacity="0.3">
<path opacity="0.3" d="M57.3509 46.9709L59.0616 46.0551C59.3135 46.0928 59.5714 46.1496 59.8387 46.2368L58.1442 47.1426C57.8718 47.0601 57.6065 47.0025 57.3509 46.9709Z" fill="white"/>
</g>
<g opacity="0.3">
<path opacity="0.3" d="M60.4196 48.3712L62.0807 47.4823C62.2288 47.5979 62.3741 47.7199 62.5178 47.8454L60.8616 48.7316C60.7163 48.6069 60.5688 48.4861 60.4196 48.3712Z" fill="white"/>
</g>
<g opacity="0.3">
<path opacity="0.3" d="M61.1423 48.9915L62.7964 48.1065C62.9283 48.2307 63.0574 48.3627 63.1848 48.4942L61.5334 49.3792C61.4046 49.2463 61.2761 49.1154 61.1423 48.9915Z" fill="white"/>
</g>
<g opacity="0.3">
<path opacity="0.3" d="M59.5779 47.8022L61.2456 46.9101C61.4136 47.0136 61.5807 47.1218 61.7451 47.2391L60.0847 48.128C59.9188 48.0115 59.749 47.9048 59.5779 47.8022Z" fill="white"/>
</g>
<g opacity="0.3">
<path opacity="0.3" d="M65.0528 56.0331L66.6699 55.1675C66.7023 55.354 66.7283 55.5377 66.751 55.7218L65.1384 56.5843C65.1152 56.4019 65.087 56.2179 65.0528 56.0331Z" fill="white"/>
</g>
<g opacity="0.3">
<path opacity="0.3" d="M63.8677 52.6158L65.5029 51.7409C65.5827 51.8979 65.6554 52.0572 65.729 52.2168L64.0977 53.0898C64.0238 52.931 63.9489 52.7728 63.8677 52.6158Z" fill="white"/>
</g>
<g opacity="0.3">
<path opacity="0.3" d="M63.4278 51.8342L65.0662 50.9576C65.1555 51.1088 65.2401 51.2618 65.3239 51.416L63.6893 52.2905C63.6047 52.1375 63.5184 51.9854 63.4278 51.8342Z" fill="white"/>
</g>
<g opacity="0.3">
<path opacity="0.3" d="M64.5779 60.3511L66.1189 59.526C65.8557 59.9266 65.5281 60.2419 65.146 60.4646L63.7669 61.2652L63.7559 61.2461C64.0767 61.0173 64.354 60.7192 64.5779 60.3511Z" fill="white"/>
</g>
<g opacity="0.3">
<path opacity="0.3" d="M55.7755 47.1283L55.7559 47.0934L56.9601 46.3934C57.3699 46.1554 57.8422 46.0272 58.36 46.0094L56.5969 46.9535C56.3074 46.9768 56.0313 47.0326 55.7755 47.1283Z" fill="white"/>
</g>
<g opacity="0.3">
<path opacity="0.3" d="M65.2148 57.9825L66.8144 57.1269C66.8029 57.346 66.7828 57.5557 66.7516 57.7574L65.1602 58.6087C65.1876 58.4089 65.2057 58.1996 65.2148 57.9825Z" fill="white"/>
</g>
<g opacity="0.3">
<path opacity="0.3" d="M64.2404 53.4228L65.8683 52.5512C65.9382 52.7142 66.0029 52.8779 66.0659 53.0424L64.4372 53.9138C64.3742 53.7492 64.3108 53.5855 64.2404 53.4228Z" fill="white"/>
</g>
<g opacity="0.3">
<path opacity="0.3" d="M65.1931 56.9773L66.8024 56.1165C66.8169 56.3126 66.8241 56.507 66.8259 56.7001L65.2188 57.5598C65.2159 57.3672 65.21 57.1728 65.1931 56.9773Z" fill="white"/>
</g>
<g opacity="0.3">
<path opacity="0.3" d="M64.8444 55.1311L66.466 54.2635C66.5131 54.4386 66.5581 54.615 66.595 54.7907L64.9785 55.6562C64.9391 55.4811 64.8928 55.3062 64.8444 55.1311Z" fill="white"/>
</g>
<g opacity="0.3">
<path opacity="0.3" d="M64.5687 54.261L66.1935 53.3915C66.2528 53.5595 66.3123 53.728 66.3637 53.8967L64.7383 54.7665C64.6859 54.5983 64.6296 54.4294 64.5687 54.261Z" fill="white"/>
</g>
</g>
<path d="M53.6667 51.0348C53.6643 54.6911 56.2418 59.1482 59.4177 60.9964C62.6116 62.8348 65.1985 61.35 65.2286 57.7018C65.2211 54.0275 62.6437 49.5705 59.4677 47.7223C58.5249 47.1903 57.6656 46.9386 56.8701 46.9314C54.9873 46.9368 53.6898 48.438 53.6667 51.0348Z" fill="url(#paint11_radial)"/>
<path d="M55.7846 52.2628C55.7859 54.5675 57.4065 57.3889 59.4219 58.5561C61.4301 59.7103 63.0792 58.776 63.0779 56.4712C63.0898 54.1592 61.4619 51.3248 59.4537 50.1706C58.8578 49.8361 58.3025 49.6668 57.8082 49.6685C56.6124 49.6677 55.7925 50.619 55.7846 52.2628Z" fill="url(#paint12_radial)"/>
<path d="M43.1705 57.8386L41.5626 58.7745C42.6206 58.1582 44.0683 58.2528 45.6751 59.1665C48.8607 61.0093 51.4342 65.4719 51.4167 69.1433C51.4143 70.9574 50.7725 72.2338 49.7425 72.8348L51.3503 71.8989C52.3804 71.2979 53.0221 70.0215 53.0246 68.2074C53.0421 64.536 50.4686 60.0734 47.269 58.2383C46.3379 57.6973 45.4608 57.4531 44.678 57.4472C44.116 57.4471 43.6089 57.5801 43.1705 57.8386Z" fill="url(#paint13_radial)"/>
<g opacity="0.3">
<g opacity="0.3">
<path opacity="0.3" d="M51.2667 70.5108L52.8472 69.6638C52.7854 69.9224 52.7072 70.1648 52.6114 70.3874L51.0446 71.2263C51.1336 71.0039 51.2089 70.7666 51.2667 70.5108Z" fill="white"/>
</g>
<g opacity="0.3">
<path opacity="0.3" d="M48.0094 61.0972L49.6573 60.2149C49.7779 60.348 49.8991 60.4807 50.0155 60.6202L48.3668 61.5022C48.2506 61.3633 48.1303 61.2294 48.0094 61.0972Z" fill="white"/>
</g>
<g opacity="0.3">
<path opacity="0.3" d="M48.6086 61.7959L50.2537 60.9148C50.3622 61.055 50.4712 61.1949 50.5755 61.3402L48.9342 62.2179C48.8291 62.0738 48.719 61.9358 48.6086 61.7959Z" fill="white"/>
</g>
<g opacity="0.3">
<path opacity="0.3" d="M44.8005 58.7537L46.4837 57.8529C46.6772 57.9337 46.8725 58.0282 47.0709 58.135L45.3977 59.0311C45.1958 58.9255 44.9964 58.8326 44.8005 58.7537Z" fill="white"/>
</g>
<g opacity="0.3">
<path opacity="0.3" d="M49.1307 62.5219L50.772 61.6442C50.8718 61.7891 50.9672 61.9363 51.061 62.0858L49.4238 62.962C49.3289 62.8131 49.2305 62.6668 49.1307 62.5219Z" fill="white"/>
</g>
<g opacity="0.3">
<path opacity="0.3" d="M43.5563 58.4141L45.267 57.4983C45.5186 57.5355 45.777 57.592 46.0438 57.6795L44.3496 58.5858C44.0769 58.5028 43.8119 58.4457 43.5563 58.4141Z" fill="white"/>
</g>
<g opacity="0.3">
<path opacity="0.3" d="M46.6247 59.8139L48.2858 58.9251C48.4342 59.0398 48.5792 59.1626 48.7229 59.2881L47.0667 60.1744C46.9211 60.0491 46.7739 59.9289 46.6247 59.8139Z" fill="white"/>
</g>
<g opacity="0.3">
<path opacity="0.3" d="M47.3474 60.4329L49.002 59.5476C49.1342 59.6724 49.263 59.8039 49.3912 59.9357L47.739 60.8203C47.6105 60.688 47.4814 60.556 47.3474 60.4329Z" fill="white"/>
</g>
<g opacity="0.3">
<path opacity="0.3" d="M45.783 59.2436L47.4506 58.3515C47.6187 58.455 47.7869 58.564 47.9502 58.6805L46.2898 59.5694C46.1239 59.453 45.954 59.3462 45.783 59.2436Z" fill="white"/>
</g>
<g opacity="0.3">
<path opacity="0.3" d="M51.2578 67.4753L52.8746 66.6104C52.9072 66.7962 52.9331 66.9799 52.9563 67.1637L51.3438 68.0262C51.3206 67.8438 51.292 67.6602 51.2578 67.4753Z" fill="white"/>
</g>
<g opacity="0.3">
<path opacity="0.3" d="M50.0724 64.0568L51.7072 63.1814C51.7871 63.3384 51.8602 63.4982 51.9335 63.6573L50.3027 64.5312C50.2286 64.3719 50.1533 64.2132 50.0724 64.0568Z" fill="white"/>
</g>
<g opacity="0.3">
<path opacity="0.3" d="M49.6327 63.2769L51.2714 62.3996C51.3604 62.5502 51.4449 62.7041 51.5288 62.8582L49.8938 63.7335C49.8091 63.5791 49.7228 63.427 49.6327 63.2769Z" fill="white"/>
</g>
<g opacity="0.3">
<path opacity="0.3" d="M50.783 71.7926L52.324 70.9675C52.0608 71.3674 51.7338 71.6828 51.351 71.9054L49.972 72.706L49.9609 72.6876C50.2818 72.4582 50.5597 72.1606 50.783 71.7926Z" fill="white"/>
</g>
<g opacity="0.3">
<path opacity="0.3" d="M41.9806 58.5704L41.9609 58.536L43.1652 57.8361C43.5756 57.598 44.0473 57.4692 44.5651 57.452L42.802 58.3956C42.5124 58.4189 42.2364 58.4747 41.9806 58.5704Z" fill="white"/>
</g>
<g opacity="0.3">
<path opacity="0.3" d="M51.4004 69.4231L53.0003 68.5668C52.9883 68.7861 52.9683 68.9958 52.938 69.1978L51.3457 70.0501C51.3733 69.8496 51.3908 69.6405 51.4004 69.4231Z" fill="white"/>
</g>
<g opacity="0.3">
<path opacity="0.3" d="M50.4457 64.8654L52.0738 63.9943C52.1444 64.1576 52.2082 64.321 52.2713 64.4856L50.6426 65.357C50.5796 65.1924 50.5163 65.0287 50.4457 64.8654Z" fill="white"/>
</g>
<g opacity="0.3">
<path opacity="0.3" d="M51.3977 68.4195L53.0068 67.5582C53.0221 67.7546 53.0295 67.9489 53.0302 68.1427L51.4238 69.0025C51.4207 68.8094 51.4147 68.615 51.3977 68.4195Z" fill="white"/>
</g>
<g opacity="0.3">
<path opacity="0.3" d="M51.0489 66.5728L52.6706 65.7052C52.7177 65.8804 52.7624 66.0576 52.7999 66.233L51.1836 67.0977C51.1436 66.9229 51.0974 66.748 51.0489 66.5728Z" fill="white"/>
</g>
<g opacity="0.3">
<path opacity="0.3" d="M50.7732 65.7039L52.3975 64.8347C52.457 65.0019 52.5169 65.1709 52.5682 65.3397L50.9434 66.2092C50.8907 66.0405 50.8338 65.8719 50.7732 65.7039Z" fill="white"/>
</g>
</g>
<path d="M39.8718 62.4762C39.8694 66.1325 42.4468 70.5896 45.6228 72.4378C48.8167 74.2761 51.4036 72.7914 51.4336 69.1432C51.4262 65.4689 48.8488 61.0118 45.6728 59.1637C44.73 58.6317 43.8706 58.38 43.0751 58.3728C41.1924 58.3782 39.8949 59.8794 39.8718 62.4762Z" fill="url(#paint14_radial)"/>
<path d="M42.0092 63.7054C42.0105 66.0102 43.6311 68.8315 45.6465 69.9988C47.6547 71.153 49.3038 70.2186 49.3026 67.9139C49.3144 65.6019 47.6865 62.7675 45.6783 61.6133C45.0824 61.2788 44.5271 61.1095 44.0328 61.1112C42.837 61.1104 42.0171 62.0617 42.0092 63.7054Z" fill="url(#paint15_radial)"/>
<path d="M25.5455 47.9988L23.9376 48.9347C24.9956 48.3184 26.4357 48.399 28.0501 49.3267C31.2357 51.1695 33.8092 55.632 33.8056 59.2958C33.7893 61.1176 33.1475 62.3939 32.1175 62.9949L33.7253 62.059C34.7554 61.458 35.3971 60.1817 35.3996 58.3676C35.4171 54.6962 32.8436 50.2336 29.644 48.3984C28.7129 47.8575 27.8497 47.6056 27.053 47.6073C26.491 47.6073 25.9839 47.7403 25.5455 47.9988Z" fill="url(#paint16_radial)"/>
<g opacity="0.3">
<g opacity="0.3">
<path opacity="0.3" d="M33.6417 60.6717L35.2224 59.8252C35.1608 60.0844 35.082 60.327 34.9861 60.5496L33.4196 61.3877C33.5086 61.1654 33.5838 60.9289 33.6417 60.6717Z" fill="white"/>
</g>
<g opacity="0.3">
<path opacity="0.3" d="M30.3821 51.2593L32.0301 50.377C32.151 50.5106 32.2716 50.6436 32.3886 50.7828L30.7398 51.6648C30.6231 51.5262 30.503 51.3915 30.3821 51.2593Z" fill="white"/>
</g>
<g opacity="0.3">
<path opacity="0.3" d="M30.9839 51.9579L32.6289 51.0768C32.738 51.2167 32.8465 51.3569 32.951 51.5013L31.3095 52.3799C31.2044 52.2357 31.0946 52.0969 30.9839 51.9579Z" fill="white"/>
</g>
<g opacity="0.3">
<path opacity="0.3" d="M27.175 48.9159L28.8572 48.0147C29.0514 48.0965 29.247 48.19 29.4452 48.2975L27.7712 49.1936C27.5698 49.0879 27.3704 48.9949 27.175 48.9159Z" fill="white"/>
</g>
<g opacity="0.3">
<path opacity="0.3" d="M31.5055 52.6834L33.1464 51.805C33.2457 51.9515 33.3415 52.0979 33.4351 52.2468L31.7977 53.124C31.7027 52.9751 31.6053 52.8283 31.5055 52.6834Z" fill="white"/>
</g>
<g opacity="0.3">
<path opacity="0.3" d="M25.9115 48.575L27.6221 47.6592C27.8738 47.6964 28.132 47.7537 28.3998 47.8407L26.7047 48.7466C26.4329 48.6639 26.1673 48.6071 25.9115 48.575Z" fill="white"/>
</g>
<g opacity="0.3">
<path opacity="0.3" d="M28.9997 49.9765L30.6608 49.0877C30.8086 49.2027 30.9542 49.3252 31.0976 49.4502L29.4417 50.337C29.2961 50.2118 29.1489 50.0915 28.9997 49.9765Z" fill="white"/>
</g>
<g opacity="0.3">
<path opacity="0.3" d="M29.7223 50.5944L31.3763 49.7091C31.5088 49.8344 31.6367 49.9656 31.7653 50.0979L30.113 50.9823C29.9839 50.8503 29.8556 50.7185 29.7223 50.5944Z" fill="white"/>
</g>
<g opacity="0.3">
<path opacity="0.3" d="M28.158 49.4063L29.8256 48.5142C29.9934 48.6171 30.1617 48.7261 30.3257 48.8429L28.6648 49.7321C28.4986 49.6151 28.3288 49.5083 28.158 49.4063Z" fill="white"/>
</g>
<g opacity="0.3">
<path opacity="0.3" d="M33.6329 57.6372L35.25 56.7715C35.2821 56.9576 35.3089 57.1415 35.3316 57.3256L33.7185 58.1884C33.6961 58.0062 33.6671 57.822 33.6329 57.6372Z" fill="white"/>
</g>
<g opacity="0.3">
<path opacity="0.3" d="M32.426 54.2194L34.0612 53.3444C34.1418 53.5017 34.214 53.6613 34.2881 53.8206L32.6562 54.6938C32.5819 54.5354 32.5072 54.3763 32.426 54.2194Z" fill="white"/>
</g>
<g opacity="0.3">
<path opacity="0.3" d="M32.0078 53.4383L33.6461 52.5615C33.7348 52.713 33.8203 52.8662 33.9039 53.0198L32.2694 53.8946C32.1847 53.7416 32.0976 53.5892 32.0078 53.4383Z" fill="white"/>
</g>
<g opacity="0.3">
<path opacity="0.3" d="M33.158 61.9546L34.699 61.1301C34.4364 61.5301 34.1089 61.8454 33.7267 62.0681L32.347 62.8686L32.3359 62.8496C32.6568 62.6208 32.9347 62.3233 33.158 61.9546Z" fill="white"/>
</g>
<g opacity="0.3">
<path opacity="0.3" d="M24.355 48.7324L24.3359 48.6975L25.5396 47.9975C25.95 47.7595 26.4217 47.6313 26.9395 47.6135L25.1764 48.5576C24.8868 48.5809 24.6108 48.6367 24.355 48.7324Z" fill="white"/>
</g>
<g opacity="0.3">
<path opacity="0.3" d="M33.7724 59.5864L35.3722 58.73C35.3616 58.9493 35.3408 59.1587 35.3099 59.3611L33.7185 60.2122C33.7455 60.012 33.7633 59.8034 33.7724 59.5864Z" fill="white"/>
</g>
<g opacity="0.3">
<path opacity="0.3" d="M32.82 55.0272L34.4478 54.1556C34.5185 54.3188 34.5824 54.4823 34.6455 54.6468L33.0176 55.5184C32.9537 55.3536 32.8904 55.1899 32.82 55.0272Z" fill="white"/>
</g>
<g opacity="0.3">
<path opacity="0.3" d="M33.7732 58.5814L35.3825 57.7206C35.397 57.9167 35.4042 58.1111 35.406 58.3042L33.7988 59.1639C33.796 58.9713 33.7898 58.7777 33.7732 58.5814Z" fill="white"/>
</g>
<g opacity="0.3">
<path opacity="0.3" d="M33.424 56.7354L35.0458 55.8681C35.0934 56.043 35.1375 56.2191 35.1752 56.3951L33.5586 57.2603C33.5192 57.0852 33.4724 56.9106 33.424 56.7354Z" fill="white"/>
</g>
<g opacity="0.3">
<path opacity="0.3" d="M33.149 55.8655L34.7738 54.996C34.8326 55.1643 34.8921 55.3328 34.9434 55.5015L33.3184 56.3718C33.2657 56.2031 33.2094 56.0342 33.149 55.8655Z" fill="white"/>
</g>
</g>
<path d="M22.2663 52.6376C22.264 56.2939 24.8414 60.751 28.0173 62.5992C31.2112 64.4376 33.7981 62.9528 33.8103 59.3144C33.8207 55.6303 31.2433 51.1733 28.0673 49.3251C27.1245 48.7931 26.2473 48.5512 25.4697 48.5342C23.5869 48.5396 22.2715 50.0506 22.2663 52.6376Z" fill="url(#paint17_radial)"/>
<path d="M24.3842 53.8656C24.3855 56.1703 26.0061 58.9917 28.0215 60.1589C30.0297 61.3131 31.6788 60.3788 31.6776 58.074C31.6894 55.762 30.0615 52.9276 28.0533 51.7734C27.4574 51.4389 26.9021 51.2696 26.4078 51.2713C25.212 51.2705 24.3921 52.2218 24.3842 53.8656Z" fill="url(#paint18_radial)"/>
<path d="M15.9615 30.5134L14.3536 31.4493C15.4116 30.833 16.8517 30.9136 18.4661 31.8413C21.6517 33.6841 24.2252 38.1466 24.2077 41.8181C24.2053 43.6322 23.5636 44.9085 22.5335 45.5095L24.1413 44.5737C25.1714 43.9727 25.8131 42.6963 25.8156 40.8822C25.8331 37.2108 23.2596 32.7482 20.06 30.9131C19.1289 30.3721 18.2518 30.1279 17.4691 30.1219C16.9071 30.1219 16.3999 30.2549 15.9615 30.5134Z" fill="url(#paint19_radial)"/>
<g opacity="0.3">
<g opacity="0.3">
<path opacity="0.3" d="M24.0575 43.1859L25.639 42.3394C25.5765 42.5983 25.4976 42.8409 25.4028 43.0629L23.8359 43.9016C23.9244 43.6796 24.0002 43.4428 24.0575 43.1859Z" fill="white"/>
</g>
<g opacity="0.3">
<path opacity="0.3" d="M20.8008 33.7736L22.4494 32.8914C22.5691 33.0242 22.6903 33.1569 22.8067 33.2964L21.1581 34.1787C21.0417 34.0406 20.9213 33.9053 20.8008 33.7736Z" fill="white"/>
</g>
<g opacity="0.3">
<path opacity="0.3" d="M21.4001 34.4699L23.0448 33.5895C23.1544 33.7292 23.2628 33.8694 23.3673 34.0139L21.726 34.8917C21.6205 34.7478 21.511 34.6095 21.4001 34.4699Z" fill="white"/>
</g>
<g opacity="0.3">
<path opacity="0.3" d="M17.591 31.4293L19.2733 30.528C19.4674 30.6098 19.663 30.7034 19.8612 30.8109L18.1873 31.7069C17.9864 31.6009 17.7864 31.5083 17.591 31.4293Z" fill="white"/>
</g>
<g opacity="0.3">
<path opacity="0.3" d="M21.9216 35.1967L23.5628 34.3187C23.6621 34.4639 23.7583 34.6114 23.8514 34.7606L22.2148 35.6368C22.1193 35.4882 22.0217 35.3421 21.9216 35.1967Z" fill="white"/>
</g>
<g opacity="0.3">
<path opacity="0.3" d="M16.3473 31.0889L18.058 30.1731C18.3096 30.2103 18.5681 30.2667 18.8353 30.354L17.1406 31.2605C16.8688 31.1778 16.6034 31.1201 16.3473 31.0889Z" fill="white"/>
</g>
<g opacity="0.3">
<path opacity="0.3" d="M19.4157 32.4886L21.0768 31.5998C21.2249 31.7153 21.3702 31.8373 21.5139 31.9629L19.8577 32.8491C19.7121 32.7238 19.5655 32.6033 19.4157 32.4886Z" fill="white"/>
</g>
<g opacity="0.3">
<path opacity="0.3" d="M20.1383 33.1077L21.7923 32.2224C21.9245 32.3472 22.0527 32.4789 22.1813 32.6112L20.529 33.4956C20.4004 33.3633 20.2716 33.2319 20.1383 33.1077Z" fill="white"/>
</g>
<g opacity="0.3">
<path opacity="0.3" d="M18.574 31.9196L20.2417 31.0275C20.4095 31.1305 20.5777 31.2394 20.7417 31.3562L19.0808 32.2454C18.9146 32.1284 18.7448 32.0217 18.574 31.9196Z" fill="white"/>
</g>
<g opacity="0.3">
<path opacity="0.3" d="M24.0483 40.1508L25.6655 39.2852C25.6976 39.4712 25.7244 39.6551 25.7471 39.8392L24.1348 40.7023C24.1116 40.5198 24.0826 40.3357 24.0483 40.1508Z" fill="white"/>
</g>
<g opacity="0.3">
<path opacity="0.3" d="M22.842 36.7327L24.4772 35.8578C24.5578 36.015 24.6306 36.1744 24.7044 36.3331L23.0723 37.2072C22.9981 37.0478 22.9232 36.8896 22.842 36.7327Z" fill="white"/>
</g>
<g opacity="0.3">
<path opacity="0.3" d="M22.4238 35.9516L24.0621 35.0748C24.1508 35.2263 24.2363 35.3796 24.3199 35.5331L22.6854 36.4079C22.6007 36.2549 22.5136 36.1026 22.4238 35.9516Z" fill="white"/>
</g>
<g opacity="0.3">
<path opacity="0.3" d="M23.5734 44.4673L25.1144 43.6422C24.8518 44.0428 24.5243 44.3575 24.1421 44.5808L22.7624 45.3813L22.752 45.3623C23.0728 45.1335 23.3501 44.8354 23.5734 44.4673Z" fill="white"/>
</g>
<g opacity="0.3">
<path opacity="0.3" d="M14.771 31.2451L14.752 31.2108L15.9562 30.5108C16.366 30.2728 16.8383 30.1446 17.3555 30.1268L15.5924 31.0709C15.3028 31.0942 15.0268 31.1501 14.771 31.2451Z" fill="white"/>
</g>
<g opacity="0.3">
<path opacity="0.3" d="M24.1915 42.0991L25.7913 41.2427C25.7804 41.4629 25.7596 41.6723 25.7285 41.8741L24.1367 42.7261C24.1643 42.5255 24.1819 42.3165 24.1915 42.0991Z" fill="white"/>
</g>
<g opacity="0.3">
<path opacity="0.3" d="M23.2363 37.5411L24.8642 36.6695C24.9346 36.8322 24.999 36.9953 25.062 37.1599L23.4336 38.0318C23.37 37.8675 23.3067 37.7038 23.2363 37.5411Z" fill="white"/>
</g>
<g opacity="0.3">
<path opacity="0.3" d="M24.1892 41.0947L25.7985 40.2339C25.8132 40.4292 25.8202 40.6244 25.822 40.8176L24.2148 41.6772C24.212 41.4846 24.2061 41.2902 24.1892 41.0947Z" fill="white"/>
</g>
<g opacity="0.3">
<path opacity="0.3" d="M23.8403 39.2473L25.4617 38.3792C25.5089 38.5557 25.5531 38.7318 25.5912 38.9069L23.9743 39.7719C23.9354 39.5978 23.8883 39.4227 23.8403 39.2473Z" fill="white"/>
</g>
<g opacity="0.3">
<path opacity="0.3" d="M23.565 38.3788L25.1898 37.5093C25.2491 37.6773 25.3081 37.8461 25.3595 38.0149L23.7344 38.8852C23.6817 38.7165 23.6251 38.547 23.565 38.3788Z" fill="white"/>
</g>
</g>
<path d="M12.6628 35.1509C12.6604 38.8073 15.2379 43.2643 18.4138 45.1125C21.6077 46.9509 24.1946 45.4662 24.2067 41.8277C24.2172 38.1437 21.6398 33.6866 18.4638 31.8384C17.521 31.3065 16.6617 31.0548 15.8662 31.0475C13.9834 31.0529 12.668 32.5639 12.6628 35.1509Z" fill="url(#paint20_radial)"/>
<path d="M14.7807 36.3802C14.782 38.6849 16.4026 41.5063 18.418 42.6735C20.4262 43.8277 22.0753 42.8933 22.074 40.5886C22.0859 38.2766 20.458 35.4422 18.4498 34.288C17.8539 33.9535 17.2986 33.7842 16.8043 33.7859C15.6085 33.7851 14.7886 34.7364 14.7807 36.3802Z" fill="url(#paint21_radial)"/>
<path d="M17.8463 10.5342L16.2384 11.4701C17.2964 10.8538 18.7364 10.9344 20.3508 11.8621C23.5365 13.7049 26.11 18.1674 26.0925 21.8389C26.09 23.653 25.4483 24.9293 24.4182 25.5303L26.0122 24.6021C27.0562 23.9934 27.6979 22.7171 27.7004 20.903C27.7178 17.2316 25.1444 12.769 21.9448 10.9339C21.0137 10.3929 20.1505 10.141 19.3538 10.1427C18.7918 10.1427 18.2847 10.2757 17.8463 10.5342Z" fill="url(#paint22_radial)"/>
<g opacity="0.3">
<g opacity="0.3">
<path opacity="0.3" d="M25.9425 23.2064L27.523 22.3594C27.4612 22.618 27.383 22.8604 27.2872 23.083L25.7204 23.9219C25.8094 23.6995 25.8847 23.4622 25.9425 23.2064Z" fill="white"/>
</g>
<g opacity="0.3">
<path opacity="0.3" d="M22.6829 13.7935L24.3308 12.9112C24.4515 13.0443 24.5726 13.177 24.6894 13.317L23.0403 14.1985C22.9239 14.0604 22.8038 13.9257 22.6829 13.7935Z" fill="white"/>
</g>
<g opacity="0.3">
<path opacity="0.3" d="M23.2844 14.4915L24.9294 13.6104C25.0379 13.7506 25.147 13.8906 25.2513 14.0358L23.61 14.9136C23.5049 14.7694 23.3948 14.6314 23.2844 14.4915Z" fill="white"/>
</g>
<g opacity="0.3">
<path opacity="0.3" d="M19.4762 11.4493L21.1595 10.5485C21.353 10.6293 21.5483 10.7238 21.7467 10.8305L20.0735 11.7267C19.8716 11.6211 19.6722 11.5281 19.4762 11.4493Z" fill="white"/>
</g>
<g opacity="0.3">
<path opacity="0.3" d="M23.8065 15.2175L25.4478 14.3398C25.5475 14.4847 25.643 14.6319 25.7368 14.7814L24.0996 15.6576C24.0047 15.5087 23.9065 15.3629 23.8065 15.2175Z" fill="white"/>
</g>
<g opacity="0.3">
<path opacity="0.3" d="M18.2321 11.1097L19.9428 10.1939C20.1944 10.2311 20.4528 10.2876 20.7196 10.3751L19.0254 11.2813C18.7527 11.1984 18.4876 11.1413 18.2321 11.1097Z" fill="white"/>
</g>
<g opacity="0.3">
<path opacity="0.3" d="M21.3005 12.5095L22.9616 11.6207C23.11 11.7354 23.255 11.8582 23.3987 11.9837L21.7425 12.87C21.5968 12.7447 21.4497 12.6245 21.3005 12.5095Z" fill="white"/>
</g>
<g opacity="0.3">
<path opacity="0.3" d="M22.0231 13.1298L23.6771 12.2445C23.8092 12.3693 23.9381 12.5007 24.0666 12.633L22.414 13.5169C22.2857 13.3851 22.1566 13.2531 22.0231 13.1298Z" fill="white"/>
</g>
<g opacity="0.3">
<path opacity="0.3" d="M20.4588 11.9405L22.1264 11.0483C22.2945 11.1518 22.4627 11.2608 22.626 11.3773L20.9656 12.2663C20.7996 12.1498 20.6298 12.0431 20.4588 11.9405Z" fill="white"/>
</g>
<g opacity="0.3">
<path opacity="0.3" d="M25.9336 20.1709L27.5504 19.3061C27.583 19.4918 27.6097 19.6758 27.6321 19.8593L26.0195 20.7219C25.9964 20.5395 25.9677 20.3558 25.9336 20.1709Z" fill="white"/>
</g>
<g opacity="0.3">
<path opacity="0.3" d="M24.7482 16.7536L26.383 15.8782C26.4629 16.0351 26.536 16.195 26.6093 16.3541L24.9785 17.228C24.9043 17.0687 24.8291 16.91 24.7482 16.7536Z" fill="white"/>
</g>
<g opacity="0.3">
<path opacity="0.3" d="M24.3085 15.9726L25.9472 15.0952C26.0362 15.2459 26.1207 15.3997 26.2046 15.5538L24.5696 16.4291C24.4849 16.2748 24.3986 16.1226 24.3085 15.9726Z" fill="white"/>
</g>
<g opacity="0.3">
<path opacity="0.3" d="M25.4588 24.4894L26.9998 23.6643C26.7366 24.0642 26.4096 24.3796 26.0268 24.6022L24.6478 25.4028L24.6367 25.3844C24.9576 25.155 25.2355 24.8574 25.4588 24.4894Z" fill="white"/>
</g>
<g opacity="0.3">
<path opacity="0.3" d="M16.6563 11.266L16.6367 11.2316L17.8409 10.5317C18.2514 10.2936 18.7231 10.1648 19.2409 10.1476L17.4778 11.0911C17.1882 11.1151 16.9122 11.1703 16.6563 11.266Z" fill="white"/>
</g>
<g opacity="0.3">
<path opacity="0.3" d="M26.0762 22.1199L27.6761 21.2636C27.6641 21.4829 27.6441 21.6926 27.6138 21.8946L26.0215 22.7469C26.0491 22.5464 26.0666 22.3373 26.0762 22.1199Z" fill="white"/>
</g>
<g opacity="0.3">
<path opacity="0.3" d="M25.1214 17.561L26.7496 16.6899C26.8202 16.8531 26.884 17.0166 26.947 17.1812L25.3184 18.0526C25.2554 17.888 25.1921 17.7243 25.1214 17.561Z" fill="white"/>
</g>
<g opacity="0.3">
<path opacity="0.3" d="M26.0735 21.1151L27.6826 20.2538C27.6979 20.4501 27.7052 20.6445 27.706 20.8383L26.0996 21.6981C26.0964 21.505 26.0905 21.3105 26.0735 21.1151Z" fill="white"/>
</g>
<g opacity="0.3">
<path opacity="0.3" d="M25.7247 19.2684L27.3463 18.4008C27.3934 18.576 27.4381 18.7531 27.4756 18.9286L25.8594 19.7933C25.8194 19.6185 25.7731 19.4435 25.7247 19.2684Z" fill="white"/>
</g>
<g opacity="0.3">
<path opacity="0.3" d="M25.4491 18.3995L27.074 17.5303C27.133 17.6977 27.1928 17.8668 27.2441 18.0356L25.6191 18.9048C25.5665 18.7361 25.5097 18.5675 25.4491 18.3995Z" fill="white"/>
</g>
</g>
<path d="M14.5475 15.1717C14.5452 18.8281 17.1226 23.2852 20.2986 25.1333C23.4924 26.9717 26.0794 25.487 26.0915 21.8485C26.102 18.1645 23.5245 13.7074 20.3486 11.8592C19.4058 11.3273 18.5464 11.0756 17.7509 11.0683C15.8681 11.0738 14.5707 12.5749 14.5475 15.1717Z" fill="url(#paint23_radial)"/>
<path d="M16.6655 16.401C16.6667 18.7057 18.2873 21.5271 20.3028 22.6943C22.311 23.8485 23.96 22.9142 23.9588 20.6094C23.9706 18.2974 22.3428 15.463 20.3346 14.3088C19.7386 13.9743 19.1834 13.805 18.6891 13.8067C17.4932 13.8059 16.6733 14.7572 16.6655 16.401Z" fill="url(#paint24_radial)"/>
<defs>
<radialGradient id="paint0_radial" cx="0" cy="0" r="1" gradientUnits="userSpaceOnUse" gradientTransform="translate(38.1979 39.5417) rotate(61.324) scale(24.8269)">
<stop stop-color="#00D5FF"/>
<stop offset="0.49" stop-color="#3A4AFF"/>
<stop offset="1" stop-color="#7E20FF"/>
</radialGradient>
<radialGradient id="paint1_radial" cx="0" cy="0" r="1" gradientUnits="userSpaceOnUse" gradientTransform="translate(46.3023 29.9906) rotate(61.2664) scale(28.9784)">
<stop stop-color="#00D5FF"/>
<stop offset="0.49" stop-color="#3A4AFF"/>
<stop offset="1" stop-color="#7E20FF"/>
</radialGradient>
<radialGradient id="paint2_radial" cx="0" cy="0" r="1" gradientUnits="userSpaceOnUse" gradientTransform="translate(29.235 27.5205) rotate(61.3241) scale(37.236)">
<stop stop-color="#00D5FF"/>
<stop offset="0.49" stop-color="#3A4AFF"/>
<stop offset="1" stop-color="#7E20FF"/>
</radialGradient>
<radialGradient id="paint3_radial" cx="0" cy="0" r="1" gradientUnits="userSpaceOnUse" gradientTransform="translate(37.9454 34.4854) rotate(60.915) scale(27.2063)">
<stop stop-color="#00D5FF"/>
<stop offset="0.49" stop-color="#3A4AFF"/>
<stop offset="1" stop-color="#7E20FF"/>
</radialGradient>
<radialGradient id="paint4_radial" cx="0" cy="0" r="1" gradientUnits="userSpaceOnUse" gradientTransform="translate(42.8227 9.89278) rotate(61.2664) scale(15.8957)">
<stop stop-color="#00D5FF"/>
<stop offset="0.49" stop-color="#3A4AFF"/>
<stop offset="1" stop-color="#7E20FF"/>
</radialGradient>
<radialGradient id="paint5_radial" cx="0" cy="0" r="1" gradientUnits="userSpaceOnUse" gradientTransform="translate(33.4794 8.5387) rotate(61.324) scale(20.4253)">
<stop stop-color="#00D5FF"/>
<stop offset="0.49" stop-color="#3A4AFF"/>
<stop offset="1" stop-color="#7E20FF"/>
</radialGradient>
<radialGradient id="paint6_radial" cx="0" cy="0" r="1" gradientUnits="userSpaceOnUse" gradientTransform="translate(38.2466 12.3584) rotate(60.915) scale(14.9237)">
<stop stop-color="#00D5FF"/>
<stop offset="0.49" stop-color="#3A4AFF"/>
<stop offset="1" stop-color="#7E20FF"/>
</radialGradient>
<radialGradient id="paint7_radial" cx="0" cy="0" r="1" gradientUnits="userSpaceOnUse" gradientTransform="translate(58.2428 25.3467) rotate(61.2664) scale(15.8957)">
<stop stop-color="#00D5FF"/>
<stop offset="0.49" stop-color="#3A4AFF"/>
<stop offset="1" stop-color="#7E20FF"/>
</radialGradient>
<radialGradient id="paint8_radial" cx="0" cy="0" r="1" gradientUnits="userSpaceOnUse" gradientTransform="translate(48.8782 23.9938) rotate(61.324) scale(20.4253)">
<stop stop-color="#00D5FF"/>
<stop offset="0.49" stop-color="#3A4AFF"/>
<stop offset="1" stop-color="#7E20FF"/>
</radialGradient>
<radialGradient id="paint9_radial" cx="0" cy="0" r="1" gradientUnits="userSpaceOnUse" gradientTransform="translate(53.6471 27.8136) rotate(60.915) scale(14.9237)">
<stop stop-color="#00D5FF"/>
<stop offset="0.49" stop-color="#3A4AFF"/>
<stop offset="1" stop-color="#7E20FF"/>
</radialGradient>
<radialGradient id="paint10_radial" cx="0" cy="0" r="1" gradientUnits="userSpaceOnUse" gradientTransform="translate(63.8964 49.1221) rotate(61.2664) scale(15.8957)">
<stop stop-color="#00D5FF"/>
<stop offset="0.49" stop-color="#3A4AFF"/>
<stop offset="1" stop-color="#7E20FF"/>
</radialGradient>
<radialGradient id="paint11_radial" cx="0" cy="0" r="1" gradientUnits="userSpaceOnUse" gradientTransform="translate(54.5325 47.7675) rotate(61.324) scale(20.4253)">
<stop stop-color="#00D5FF"/>
<stop offset="0.49" stop-color="#3A4AFF"/>
<stop offset="1" stop-color="#7E20FF"/>
</radialGradient>
<radialGradient id="paint12_radial" cx="0" cy="0" r="1" gradientUnits="userSpaceOnUse" gradientTransform="translate(59.3019 51.5871) rotate(60.915) scale(14.9237)">
<stop stop-color="#00D5FF"/>
<stop offset="0.49" stop-color="#3A4AFF"/>
<stop offset="1" stop-color="#7E20FF"/>
</radialGradient>
<radialGradient id="paint13_radial" cx="0" cy="0" r="1" gradientUnits="userSpaceOnUse" gradientTransform="translate(50.1023 60.5643) rotate(61.2664) scale(15.8957)">
<stop stop-color="#00D5FF"/>
<stop offset="0.49" stop-color="#3A4AFF"/>
<stop offset="1" stop-color="#7E20FF"/>
</radialGradient>
<radialGradient id="paint14_radial" cx="0" cy="0" r="1" gradientUnits="userSpaceOnUse" gradientTransform="translate(40.7372 59.2091) rotate(61.324) scale(20.4253)">
<stop stop-color="#00D5FF"/>
<stop offset="0.49" stop-color="#3A4AFF"/>
<stop offset="1" stop-color="#7E20FF"/>
</radialGradient>
<radialGradient id="paint15_radial" cx="0" cy="0" r="1" gradientUnits="userSpaceOnUse" gradientTransform="translate(45.5261 63.03) rotate(60.915) scale(14.9237)">
<stop stop-color="#00D5FF"/>
<stop offset="0.49" stop-color="#3A4AFF"/>
<stop offset="1" stop-color="#7E20FF"/>
</radialGradient>
<radialGradient id="paint16_radial" cx="0" cy="0" r="1" gradientUnits="userSpaceOnUse" gradientTransform="translate(32.4777 50.7243) rotate(61.2664) scale(15.8957)">
<stop stop-color="#00D5FF"/>
<stop offset="0.49" stop-color="#3A4AFF"/>
<stop offset="1" stop-color="#7E20FF"/>
</radialGradient>
<radialGradient id="paint17_radial" cx="0" cy="0" r="1" gradientUnits="userSpaceOnUse" gradientTransform="translate(23.1312 49.3708) rotate(61.324) scale(20.4253)">
<stop stop-color="#00D5FF"/>
<stop offset="0.49" stop-color="#3A4AFF"/>
<stop offset="1" stop-color="#7E20FF"/>
</radialGradient>
<radialGradient id="paint18_radial" cx="0" cy="0" r="1" gradientUnits="userSpaceOnUse" gradientTransform="translate(27.9003 53.1906) rotate(60.915) scale(14.9237)">
<stop stop-color="#00D5FF"/>
<stop offset="0.49" stop-color="#3A4AFF"/>
<stop offset="1" stop-color="#7E20FF"/>
</radialGradient>
<radialGradient id="paint19_radial" cx="0" cy="0" r="1" gradientUnits="userSpaceOnUse" gradientTransform="translate(22.8933 33.2391) rotate(61.2664) scale(15.8957)">
<stop stop-color="#00D5FF"/>
<stop offset="0.49" stop-color="#3A4AFF"/>
<stop offset="1" stop-color="#7E20FF"/>
</radialGradient>
<radialGradient id="paint20_radial" cx="0" cy="0" r="1" gradientUnits="userSpaceOnUse" gradientTransform="translate(13.528 31.884) rotate(61.324) scale(20.4253)">
<stop stop-color="#00D5FF"/>
<stop offset="0.49" stop-color="#3A4AFF"/>
<stop offset="1" stop-color="#7E20FF"/>
</radialGradient>
<radialGradient id="paint21_radial" cx="0" cy="0" r="1" gradientUnits="userSpaceOnUse" gradientTransform="translate(18.2973 35.7049) rotate(60.915) scale(14.9237)">
<stop stop-color="#00D5FF"/>
<stop offset="0.49" stop-color="#3A4AFF"/>
<stop offset="1" stop-color="#7E20FF"/>
</radialGradient>
<radialGradient id="paint22_radial" cx="0" cy="0" r="1" gradientUnits="userSpaceOnUse" gradientTransform="translate(24.7781 13.2599) rotate(61.2664) scale(15.8957)">
<stop stop-color="#00D5FF"/>
<stop offset="0.49" stop-color="#3A4AFF"/>
<stop offset="1" stop-color="#7E20FF"/>
</radialGradient>
<radialGradient id="paint23_radial" cx="0" cy="0" r="1" gradientUnits="userSpaceOnUse" gradientTransform="translate(15.413 11.9047) rotate(61.324) scale(20.4253)">
<stop stop-color="#00D5FF"/>
<stop offset="0.49" stop-color="#3A4AFF"/>
<stop offset="1" stop-color="#7E20FF"/>
</radialGradient>
<radialGradient id="paint24_radial" cx="0" cy="0" r="1" gradientUnits="userSpaceOnUse" gradientTransform="translate(20.1821 15.7257) rotate(60.915) scale(14.9237)">
<stop stop-color="#00D5FF"/>
<stop offset="0.49" stop-color="#3A4AFF"/>
<stop offset="1" stop-color="#7E20FF"/>
</radialGradient>
</defs>
</svg>
