<svg width="80" height="80" viewBox="0 0 80 80" fill="none" xmlns="http://www.w3.org/2000/svg">
<path d="M14.7377 45.2985C14.7202 47.271 15.8246 49.5437 19.6391 52.5032C29.3293 59.9852 41.3303 58.1661 41.3281 54.6377C41.3189 53.1511 41.5325 42.9016 40.8523 38.7233C40.1722 34.545 32.9175 31.4186 32.0783 30.3534C31.2592 29.3278 22.4031 26.8655 22.4031 26.8655C21.5476 26.3555 20.7729 26.1026 20.1089 26.1166C15.4904 26.1256 14.7259 37.0525 14.7377 45.2985Z" fill="url(#paint0_linear)"/>
<path d="M22.4115 26.8627C22.2588 26.8138 19.5784 34.9581 23.7495 36.4504C27.9205 37.9428 31.4744 32.3422 32.0959 30.3709C31.2828 29.3358 32.1022 24.7833 32.1022 24.7833L22.3383 24.0444L22.4115 26.8627Z" fill="url(#paint1_linear)"/>
<path d="M23.8966 29.2617C26.4873 30.0572 32.038 29.7085 34.143 23.0712C36.2086 16.4256 33.4836 11.4014 27.7428 11.0921C27.6162 11.1065 27.498 11.0814 27.3714 11.0958C18.3954 11.0901 19.0617 27.7853 23.8966 29.2617Z" fill="url(#paint2_linear)"/>
<path d="M20.5371 18.8127C21.5989 19.5794 22.3982 20.0666 23.7169 20.3389C25.7247 20.756 26.7414 20.4507 27.3981 20.137C27.9906 19.8708 28.2969 19.5973 28.789 19.8236C29.8313 20.3151 30.7029 22.0413 31.0537 24.004C31.2118 24.8929 32.062 24.3628 31.9966 23.3937C31.9191 22.1673 32.6629 21.3037 33.2146 21.2432C33.8059 21.1768 34.0526 21.4942 34.1733 21.8113C34.3385 22.2358 34.2823 22.6576 34.4802 22.1982C36.7915 14.9602 33.4375 10.8844 28.2604 10.4364C28.0137 10.4231 27.776 10.4061 27.5457 10.4071C21.6937 10.4061 19.131 16.7833 20.5371 18.8127Z" fill="url(#paint3_linear)"/>
<path d="M20.6875 27.0141C20.7851 26.6801 20.8497 26.6063 20.8497 26.6063C20.8021 26.726 20.7454 26.8706 20.6875 27.0141Z" fill="#2D261E"/>
<path d="M37.4095 55.3867C37.3921 57.3591 38.4965 59.6318 42.3109 62.5913C52.0011 70.0734 64.0022 68.2542 64 64.7258C63.9907 63.2392 64.2044 52.9897 63.5242 48.8114C62.844 44.6331 55.5894 41.5068 54.7502 40.4416C53.9311 39.4159 45.075 36.9537 45.075 36.9537C44.2194 36.4436 43.4448 36.1908 42.7808 36.2048C38.1623 36.2138 37.3978 47.1407 37.4095 55.3867Z" fill="url(#paint4_linear)"/>
<path d="M45.0834 36.9507C44.9307 36.9018 42.2503 45.0461 46.4214 46.5385C50.5924 48.0308 54.1463 42.4303 54.7678 40.4589C53.9547 39.4238 54.7741 34.8713 54.7741 34.8713L45.0102 34.1325L45.0834 36.9507Z" fill="url(#paint5_linear)"/>
<path d="M46.5685 39.35C49.1591 40.1456 54.7098 39.797 56.815 33.1598C58.8809 26.5142 56.156 21.4899 50.4152 21.1805C50.2886 21.1948 50.1703 21.1698 50.0438 21.1842C41.0678 21.1782 41.7336 37.8734 46.5685 39.35Z" fill="url(#paint6_linear)"/>
<path d="M43.2337 28.8989C44.2865 29.6692 45.0859 30.1564 46.4045 30.4288C48.4123 30.8459 49.429 30.5405 50.0857 30.2268C50.6782 29.9607 50.9845 29.6871 51.4767 29.9135C52.519 30.405 53.3906 32.1312 53.7413 34.0939C53.8994 34.9828 54.7497 34.4527 54.6932 33.4798C54.6157 32.2535 55.3505 31.3936 55.8986 31.3241C56.4935 31.2667 56.7402 31.5841 56.8609 31.9012C57.0261 32.3257 56.9699 32.7475 57.1678 32.2881C59.4791 25.0501 56.1252 20.9743 50.9481 20.5263C50.7014 20.513 50.4637 20.496 50.2333 20.4969C44.3813 20.496 41.8187 26.8732 43.2337 28.8989Z" fill="url(#paint7_linear)"/>
<path d="M43.3594 37.1023C43.4569 36.7682 43.521 36.6945 43.521 36.6945C43.4739 36.8147 43.4167 36.9588 43.3594 37.1023Z" fill="#2D261E"/>
<path d="M19.153 56.0517C19.1347 58.1173 20.2913 60.4973 24.2859 63.5966C34.4337 71.432 47.0016 69.527 46.9993 65.832C46.9896 64.2752 47.2134 53.5416 46.5011 49.1659C45.7888 44.7903 38.1915 41.5163 37.3439 40.411C36.4549 39.3267 27.1805 36.7481 27.1805 36.7481C26.2846 36.214 25.4733 35.9492 24.778 35.9639C19.9413 35.9733 19.1407 47.4162 19.153 56.0517Z" fill="url(#paint8_linear)"/>
<path d="M27.1597 36.7446C26.9998 36.6933 24.1928 45.2223 28.5609 46.7851C32.9289 48.3479 36.6506 42.4829 37.3014 40.4184C36.4499 39.3344 37.3081 34.5669 37.3081 34.5669L27.0831 33.7932L27.1597 36.7446Z" fill="url(#paint9_linear)"/>
<path d="M28.7385 39.2557C31.4515 40.0888 37.2644 39.7238 39.469 32.7731C41.6323 25.8136 38.7787 20.5521 32.7667 20.2281C32.6342 20.2431 32.5103 20.2169 32.3778 20.232C22.9779 20.2257 23.6753 37.7095 28.7385 39.2557Z" fill="url(#paint10_linear)"/>
<path d="M25.2302 28.3114C26.3327 29.1181 27.1698 29.6283 28.5508 29.9135C30.6534 30.3503 31.7142 30.0211 32.4097 29.7114C33.0263 29.4233 33.3471 29.1368 33.8624 29.3738C34.954 29.8886 35.8668 31.6963 36.2341 33.7517C36.3996 34.6826 37.2901 34.1274 37.2309 33.1086C37.1497 31.8243 37.9193 30.9239 38.4932 30.8511C39.1162 30.791 39.3746 31.1234 39.5049 31.4648C39.674 31.9 39.6151 32.3417 39.8224 31.8605C42.2428 24.2807 38.7305 20.0125 33.3089 19.5433C33.0506 19.5294 32.8016 19.5116 32.5604 19.5126C26.432 19.5116 23.7484 26.19 25.2302 28.3114Z" fill="url(#paint11_linear)"/>
<path d="M25.3652 36.9033C25.4679 36.5533 25.5348 36.4762 25.5348 36.4762C25.4855 36.6015 25.4254 36.7524 25.3652 36.9033Z" fill="#2D261E"/>
<defs>
<linearGradient id="paint0_linear" x1="32.8412" y1="30.2068" x2="23.1157" y2="60.001" gradientUnits="userSpaceOnUse">
<stop stop-color="#00D5FF"/>
<stop offset="0.49" stop-color="#3A4AFF"/>
<stop offset="1" stop-color="#7E20FF"/>
</linearGradient>
<linearGradient id="paint1_linear" x1="20.9772" y1="23.2955" x2="34.4078" y2="37.9611" gradientUnits="userSpaceOnUse">
<stop stop-color="#00D5FF"/>
<stop offset="0.49" stop-color="#3A4AFF"/>
<stop offset="1" stop-color="#7E20FF"/>
</linearGradient>
<linearGradient id="paint2_linear" x1="22.4332" y1="15.7557" x2="51.4555" y2="43.6975" gradientUnits="userSpaceOnUse">
<stop stop-color="#00D5FF"/>
<stop offset="0.49" stop-color="#3A4AFF"/>
<stop offset="1" stop-color="#7E20FF"/>
</linearGradient>
<linearGradient id="paint3_linear" x1="24.6775" y1="9.75869" x2="28.3825" y2="18.7124" gradientUnits="userSpaceOnUse">
<stop stop-color="#00D5FF"/>
<stop offset="0.49" stop-color="#3A4AFF"/>
<stop offset="1" stop-color="#7E20FF"/>
</linearGradient>
<linearGradient id="paint4_linear" x1="55.5132" y1="40.295" x2="45.7876" y2="70.0892" gradientUnits="userSpaceOnUse">
<stop stop-color="#00D5FF"/>
<stop offset="0.49" stop-color="#3A4AFF"/>
<stop offset="1" stop-color="#7E20FF"/>
</linearGradient>
<linearGradient id="paint5_linear" x1="43.6487" y1="33.384" x2="57.0792" y2="48.0495" gradientUnits="userSpaceOnUse">
<stop stop-color="#00D5FF"/>
<stop offset="0.49" stop-color="#3A4AFF"/>
<stop offset="1" stop-color="#7E20FF"/>
</linearGradient>
<linearGradient id="paint6_linear" x1="45.1054" y1="25.844" x2="74.1277" y2="53.7857" gradientUnits="userSpaceOnUse">
<stop stop-color="#00D5FF"/>
<stop offset="0.49" stop-color="#3A4AFF"/>
<stop offset="1" stop-color="#7E20FF"/>
</linearGradient>
<linearGradient id="paint7_linear" x1="47.3657" y1="19.8483" x2="51.0707" y2="28.8021" gradientUnits="userSpaceOnUse">
<stop stop-color="#00D5FF"/>
<stop offset="0.49" stop-color="#3A4AFF"/>
<stop offset="1" stop-color="#7E20FF"/>
</linearGradient>
<linearGradient id="paint8_linear" x1="38.1126" y1="40.2476" x2="27.9277" y2="71.4489" gradientUnits="userSpaceOnUse">
<stop stop-color="#00D5FF"/>
<stop offset="0.49" stop-color="#3A4AFF"/>
<stop offset="1" stop-color="#7E20FF"/>
</linearGradient>
<linearGradient id="paint9_linear" x1="25.6578" y1="33.0088" x2="39.7227" y2="48.367" gradientUnits="userSpaceOnUse">
<stop stop-color="#00D5FF"/>
<stop offset="0.49" stop-color="#3A4AFF"/>
<stop offset="1" stop-color="#7E20FF"/>
</linearGradient>
<linearGradient id="paint10_linear" x1="27.2057" y1="25.1129" x2="57.5987" y2="54.3742" gradientUnits="userSpaceOnUse">
<stop stop-color="#00D5FF"/>
<stop offset="0.49" stop-color="#3A4AFF"/>
<stop offset="1" stop-color="#7E20FF"/>
</linearGradient>
<linearGradient id="paint11_linear" x1="29.5573" y1="18.8334" x2="33.4373" y2="28.2099" gradientUnits="userSpaceOnUse">
<stop stop-color="#00D5FF"/>
<stop offset="0.49" stop-color="#3A4AFF"/>
<stop offset="1" stop-color="#7E20FF"/>
</linearGradient>
</defs>
</svg>
