<svg width="80" height="80" viewBox="0 0 80 80" fill="none" xmlns="http://www.w3.org/2000/svg">
<path d="M30.6147 56.8056L31.024 62.2113L35.902 59.6551C36.0346 59.586 36.0213 59.4525 36.0191 59.3188L36.0213 56.3116L30.6147 56.8056Z" fill="url(#paint0_linear)"/>
<path d="M16.2227 39.8193L23.7297 49.7179L27.2038 48.8055L27.4711 44.5047C26.1318 43.3033 25.7505 41.7247 25.7507 40.9956C25.7553 40.5375 25.8574 40.1502 26.0638 39.8757C26.1169 39.8025 26.0417 39.629 25.9203 39.5707L21.4531 37.2332C21.3924 37.2041 21.356 37.1926 21.3077 37.1874L16.2227 39.8193Z" fill="url(#paint1_linear)"/>
<path d="M26.246 44.946L34.6717 58.7207L39.3321 56.2756C39.7211 56.0731 40.3495 55.746 40.3532 54.5841C40.3585 53.06 39.1275 51.1336 37.5898 50.2986C37.1408 50.0569 36.7085 49.9207 36.3236 49.9118C36.1799 49.8916 36.011 49.7132 36.0008 49.5474L36.0048 45.1715C36.0095 44.9979 35.8628 44.7891 35.6951 44.6862L31.2206 42.3374C31.1978 42.3302 31.1751 42.3231 31.1601 42.3309L26.246 44.946Z" fill="url(#paint2_linear)"/>
<path d="M16.2031 39.9693V48.5703C16.2031 51.8784 18.8968 55.9426 22.2049 57.6911L30.8059 62.1807C30.9477 62.2752 31.0895 62.2279 31.0895 62.0389V57.6439C31.0895 57.5021 31.2785 57.5021 31.4203 57.6439C31.7983 57.9747 32.1764 58.3055 32.6017 58.5418C34.1612 59.3452 35.4372 58.7308 35.4372 57.2186C35.4372 55.659 34.2085 53.7687 32.6962 52.9181C32.2237 52.6818 31.7983 52.54 31.4203 52.54C31.2785 52.4927 31.0895 52.3037 31.0895 52.1619V47.7669C31.0895 47.6251 30.9477 47.3889 30.8059 47.2943L26.3164 44.9787C26.1746 44.8842 26.1273 44.9787 26.1746 45.1205C26.3636 45.6403 26.5054 46.1601 26.5054 46.6327C26.4582 48.145 25.1822 48.7121 23.6227 47.9087C22.1104 47.058 20.8344 45.1677 20.8344 43.6082C20.8344 43.1356 20.9762 42.7576 21.1652 42.474C21.2125 42.4267 21.118 42.2377 21.0235 42.1905L16.5339 39.8275C16.4867 39.8275 16.4394 39.7803 16.3922 39.7803C16.2976 39.7803 16.2031 39.8748 16.2031 39.9693Z" fill="url(#paint3_linear)"/>
<path d="M25.5391 36.2329L28.9832 34.4258C28.2957 34.0526 25.8813 32.7729 25.8813 32.7729C25.8798 32.77 25.8769 32.7715 25.8754 32.7686C25.7184 32.7702 25.5624 35.9418 25.5391 36.2329Z" fill="url(#paint4_linear)"/>
<path d="M30.921 25.5259C30.9177 25.6447 29.8647 24.6966 29.4013 24.4563C27.8444 23.6403 26.4873 24.3077 26.4712 25.8515C26.4703 27.3744 27.7528 29.4132 29.2843 30.2555C29.7739 30.5211 30.8246 35.4391 30.8304 35.4752C30.8406 35.4698 35.6367 32.9601 35.6367 32.9601C35.785 32.8699 35.8193 32.761 35.8226 32.6422L35.8186 28.2853C35.8271 28.1767 35.7009 28.0342 35.5977 28.0359C35.1897 28.0271 34.7334 27.9003 34.2438 27.6347C32.7123 26.7924 31.4781 24.8716 31.4893 23.3433C31.4787 23.3229 31.4836 23.3073 31.4734 23.3126C31.4217 23.3135 30.921 25.5259 30.921 25.5259Z" fill="url(#paint5_linear)"/>
<path d="M22.5879 13.0828L17.7349 15.6264L22.3817 16.4102L30.5946 20.7205C30.7659 20.8149 30.8735 25.5689 30.8177 25.6183L35.7194 23.0901C35.7759 23.0811 35.824 23.0561 35.8311 22.9913L35.8249 18.5106C35.814 18.3329 35.6812 18.1166 35.5098 18.0222L26.9222 13.5399C25.9186 12.9815 24.9604 12.746 24.1191 12.735C23.5287 12.7363 23.0211 12.8575 22.5879 13.0828Z" fill="url(#paint6_linear)"/>
<path d="M16.0003 18.9002V27.5454C16.0003 27.6354 16.1804 27.9056 16.3605 27.9957L20.6831 30.247C20.8632 30.337 20.9533 30.6072 20.9533 30.6973C20.7732 30.9674 20.6831 31.3276 20.6831 31.7779C20.6831 33.3088 21.9438 35.1999 23.4748 36.0104C25.0057 36.8209 26.2664 36.2806 26.2664 34.7497C26.2664 34.2994 26.1764 33.8491 25.9963 33.3989C25.9963 33.2188 26.0863 33.0387 26.2664 33.1287L30.589 35.4701C30.7691 35.5602 30.9492 35.4701 30.9492 35.29V30.7873C30.9492 30.6973 30.7691 30.6072 30.6791 30.6072C30.3188 30.6072 29.8686 30.4271 29.3283 30.1569C27.7973 29.3465 26.5366 27.3653 26.5366 25.9244C26.6266 24.3034 27.8874 23.7631 29.4183 24.5736C29.8686 24.8438 30.3188 25.1139 30.6791 25.5642C30.7691 25.6543 30.9492 25.6543 30.9492 25.5642V21.0615C30.9492 20.8814 30.7691 20.7013 30.589 20.6112L22.0339 16.1086C21.0433 15.5682 20.0527 15.2981 19.2422 15.2981C17.3511 15.2981 16.0003 16.6489 16.0003 18.9002Z" fill="url(#paint7_linear)"/>
<path d="M39.6602 60.7983L42.2899 63.2516L44.424 61.3894L43.9238 58.5641L39.6602 60.7983Z" fill="url(#paint8_linear)"/>
<path d="M44.6053 48.3628L39.7095 50.9365L44.6207 53.5794L49.2171 50.6717L44.8398 48.3789C44.7896 48.3548 44.7395 48.3432 44.6947 48.3414C44.6623 48.3394 44.63 48.3499 44.6053 48.3628Z" fill="url(#paint9_linear)"/>
<path d="M49.9894 47.5563L45.0865 50.1333L52.855 70.746L57.8162 68.1387C58.3793 67.8455 59.4131 66.9866 59.4075 64.8422L59.4153 56.323C59.4222 56.1466 59.2815 55.9237 59.1035 55.8189L54.7283 53.5304C54.5605 53.445 54.4493 53.2314 54.516 53.1226C54.6977 52.8553 54.7993 52.4815 54.8023 52.0604C54.8062 50.5034 53.532 48.6246 52.0002 47.7683C51.6148 47.5493 51.133 47.4299 50.6824 47.4177C50.4377 47.4217 50.2131 47.4645 49.9894 47.5563Z" fill="url(#paint10_linear)"/>
<path d="M44.2355 51.624C44.2355 52.0854 44.3248 52.5617 44.5184 53.0381C44.5779 53.2316 44.4737 53.3358 44.31 53.2465L39.9337 50.9541C39.7551 50.8648 39.6211 50.9392 39.6211 51.103V55.5834C39.6211 55.7025 39.7402 55.8365 39.8444 55.8514C40.2463 55.8514 40.7077 55.9705 41.1989 56.2384C42.7321 57.072 43.9676 59.0071 43.9676 60.5254C43.9527 62.0734 42.6875 62.6688 41.1394 61.8502C40.678 61.612 40.2314 61.2696 39.8444 60.8677C39.7402 60.7635 39.6211 60.7635 39.6211 60.8826V65.3631C39.6211 65.5417 39.7551 65.7501 39.9337 65.8394L48.5076 70.3348C51.827 72.0615 54.5064 70.7813 54.5064 67.4768V58.9029C54.5064 58.7242 54.3575 58.5158 54.1938 58.4265L49.8175 56.1342C49.6538 56.0449 49.5496 55.8216 49.6091 55.7174C49.7878 55.4346 49.892 55.0773 49.892 54.6457C49.892 53.0976 48.6267 51.1774 47.0786 50.3587C46.6023 50.1057 46.1557 49.9866 45.7687 49.9866C44.8756 49.9866 44.2653 50.582 44.2355 51.624Z" fill="url(#paint11_linear)"/>
<path d="M36.3779 28.4568L37.1064 31.4215L42.2397 31.2578L39.9981 26.5603L36.3779 28.4568Z" fill="url(#paint12_linear)"/>
<path d="M45.4051 38.673L43.4164 40.2004L44.8557 42.2315L48.658 40.235C48.7433 40.194 48.7544 40.1228 48.7118 40.0211C48.5383 39.5953 48.4474 39.2091 48.4229 38.7985L48.3505 37.8728L45.4051 38.673Z" fill="url(#paint13_linear)"/>
<path d="M44.931 22.412L40.0246 24.9749L54.7434 47.3624L59.4822 44.8687C59.6279 44.7789 59.6689 44.7351 59.664 44.5866L59.678 36.0475C59.6743 32.7342 56.9896 28.6389 53.6829 26.9219L45.1014 22.4276C45.0795 22.4071 45.0152 22.388 44.9727 22.3894C44.9515 22.3901 44.9515 22.3901 44.931 22.412Z" fill="url(#paint14_linear)"/>
<path d="M39.914 25.1519V29.5148C39.914 29.647 39.7818 29.7131 39.6496 29.5809C39.2529 29.1843 38.8563 28.8538 38.3936 28.6555C36.8732 27.8622 35.6172 28.4572 35.6172 29.9776C35.6172 31.498 36.8071 33.415 38.3275 34.2743C38.7902 34.5388 39.2529 34.671 39.6496 34.671C39.7818 34.671 39.914 34.8693 39.914 35.0015V39.3644C39.914 39.5627 40.1123 39.761 40.2445 39.8932L44.7396 42.2069C44.8718 42.273 44.9379 42.2069 44.8718 42.0747C44.6735 41.5458 44.5413 41.017 44.5413 40.5543C44.6074 39.0339 45.8634 38.4389 47.3838 39.2983C48.9703 40.0915 50.2263 42.0086 50.2263 43.5951C50.2263 44.0578 50.0941 44.3883 49.8957 44.7189C49.8296 44.785 49.8957 44.9172 50.028 44.9833L54.5231 47.363C54.6553 47.4291 54.8536 47.363 54.8536 47.1647V38.6372C54.8536 35.332 52.1433 31.2335 48.8381 29.4487L40.2445 25.0197C40.1784 24.9536 40.1784 24.9536 40.1123 24.9536C39.9801 24.9536 39.914 25.0197 39.914 25.1519Z" fill="url(#paint15_linear)"/>
<path d="M49.7578 56.0901L54.5102 58.5964L59.0958 55.832L54.6713 53.5062L49.7578 56.0901Z" fill="url(#paint16_linear)"/>
<path d="M26.2422 44.9109L31.0043 47.422L35.5855 44.65L31.1613 42.334L26.2422 44.9109Z" fill="url(#paint17_linear)"/>
<path d="M16.2227 39.7742L21.0728 42.2254L25.795 39.5064L21.3785 37.1906L16.2227 39.7742Z" fill="url(#paint18_linear)"/>
<defs>
<linearGradient id="paint0_linear" x1="31.8968" y1="56.1381" x2="34.1981" y2="60.5589" gradientUnits="userSpaceOnUse">
<stop stop-color="#00D5FF"/>
<stop offset="0.72" stop-color="#3A4AFF"/>
<stop offset="1" stop-color="#7E20FF"/>
</linearGradient>
<linearGradient id="paint1_linear" x1="19.7433" y1="37.0905" x2="25.9642" y2="49.0407" gradientUnits="userSpaceOnUse">
<stop stop-color="#00D5FF"/>
<stop offset="0.72" stop-color="#3A4AFF"/>
<stop offset="1" stop-color="#7E20FF"/>
</linearGradient>
<linearGradient id="paint2_linear" x1="29.6883" y1="42.2413" x2="37.477" y2="57.2033" gradientUnits="userSpaceOnUse">
<stop stop-color="#00D5FF"/>
<stop offset="0.72" stop-color="#3A4AFF"/>
<stop offset="1" stop-color="#7E20FF"/>
</linearGradient>
<linearGradient id="paint3_linear" x1="25.8339" y1="41.6234" x2="25.8339" y2="88.8816" gradientUnits="userSpaceOnUse">
<stop stop-color="#00D5FF"/>
<stop offset="0.72" stop-color="#3A4AFF"/>
<stop offset="1" stop-color="#7E20FF"/>
</linearGradient>
<linearGradient id="paint4_linear" x1="25.9167" y1="32.7472" x2="27.4171" y2="35.6294" gradientUnits="userSpaceOnUse">
<stop stop-color="#6448D8"/>
<stop offset="0.13" stop-color="#6448D8"/>
<stop offset="0.37" stop-color="#C6B8FF"/>
<stop offset="0.7" stop-color="#6448D8"/>
<stop offset="1" stop-color="#6448D8"/>
</linearGradient>
<linearGradient id="paint5_linear" x1="28.9462" y1="23.4441" x2="34.2755" y2="33.6817" gradientUnits="userSpaceOnUse">
<stop stop-color="#00D5FF"/>
<stop offset="0.72" stop-color="#3A4AFF"/>
<stop offset="1" stop-color="#7E20FF"/>
</linearGradient>
<linearGradient id="paint6_linear" x1="23.6991" y1="11.0987" x2="32.041" y2="27.1427" gradientUnits="userSpaceOnUse">
<stop stop-color="#00D5FF"/>
<stop offset="0.72" stop-color="#3A4AFF"/>
<stop offset="1" stop-color="#7E20FF"/>
</linearGradient>
<linearGradient id="paint7_linear" x1="23.4752" y1="37.9016" x2="23.4752" y2="-52.1521" gradientUnits="userSpaceOnUse">
<stop stop-color="#00D5FF"/>
<stop offset="0.72" stop-color="#3A4AFF"/>
<stop offset="1" stop-color="#7E20FF"/>
</linearGradient>
<linearGradient id="paint8_linear" x1="41.3887" y1="58.9102" x2="43.2237" y2="62.4351" gradientUnits="userSpaceOnUse">
<stop stop-color="#00D5FF"/>
<stop offset="0.72" stop-color="#3A4AFF"/>
<stop offset="1" stop-color="#7E20FF"/>
</linearGradient>
<linearGradient id="paint9_linear" x1="43.1976" y1="48.3734" x2="45.7696" y2="53.3141" gradientUnits="userSpaceOnUse">
<stop stop-color="#00D5FF"/>
<stop offset="0.72" stop-color="#3A4AFF"/>
<stop offset="1" stop-color="#7E20FF"/>
</linearGradient>
<linearGradient id="paint10_linear" x1="48.3088" y1="48.4312" x2="58.4177" y2="67.8503" gradientUnits="userSpaceOnUse">
<stop stop-color="#00D5FF"/>
<stop offset="0.72" stop-color="#3A4AFF"/>
<stop offset="1" stop-color="#7E20FF"/>
</linearGradient>
<linearGradient id="paint11_linear" x1="39.6211" y1="60.548" x2="54.5064" y2="60.548" gradientUnits="userSpaceOnUse">
<stop stop-color="#00D5FF"/>
<stop offset="0.72" stop-color="#3A4AFF"/>
<stop offset="1" stop-color="#7E20FF"/>
</linearGradient>
<linearGradient id="paint12_linear" x1="37.7535" y1="27.4574" x2="40.155" y2="32.0706" gradientUnits="userSpaceOnUse">
<stop stop-color="#00D5FF"/>
<stop offset="0.72" stop-color="#3A4AFF"/>
<stop offset="1" stop-color="#7E20FF"/>
</linearGradient>
<linearGradient id="paint13_linear" x1="45.6326" y1="38.5547" x2="47.042" y2="41.2621" gradientUnits="userSpaceOnUse">
<stop stop-color="#00D5FF"/>
<stop offset="0.72" stop-color="#3A4AFF"/>
<stop offset="1" stop-color="#7E20FF"/>
</linearGradient>
<linearGradient id="paint14_linear" x1="50.4764" y1="49.3518" x2="49.7725" y2="28.1349" gradientUnits="userSpaceOnUse">
<stop stop-color="#00D5FF"/>
<stop offset="0.72" stop-color="#3A4AFF"/>
<stop offset="1" stop-color="#7E20FF"/>
</linearGradient>
<linearGradient id="paint15_linear" x1="45.2122" y1="23.9621" x2="45.2122" y2="90.0665" gradientUnits="userSpaceOnUse">
<stop stop-color="#00D5FF"/>
<stop offset="0.72" stop-color="#3A4AFF"/>
<stop offset="1" stop-color="#7E20FF"/>
</linearGradient>
<linearGradient id="paint16_linear" x1="52.2633" y1="57.9638" x2="57.1699" y2="53.427" gradientUnits="userSpaceOnUse">
<stop stop-color="#00D5FF"/>
<stop offset="0.72" stop-color="#3A4AFF"/>
<stop offset="1" stop-color="#7E20FF"/>
</linearGradient>
<linearGradient id="paint17_linear" x1="34.7918" y1="41.8008" x2="22.9114" y2="50.952" gradientUnits="userSpaceOnUse">
<stop stop-color="#00D5FF"/>
<stop offset="0.72" stop-color="#3A4AFF"/>
<stop offset="1" stop-color="#7E20FF"/>
</linearGradient>
<linearGradient id="paint18_linear" x1="24.379" y1="37.3881" x2="8.86738" y2="47.7873" gradientUnits="userSpaceOnUse">
<stop stop-color="#00D5FF"/>
<stop offset="0.72" stop-color="#3A4AFF"/>
<stop offset="1" stop-color="#7E20FF"/>
</linearGradient>
</defs>
</svg>
