<svg width="18" height="18" viewBox="0 0 18 18" fill="none" xmlns="http://www.w3.org/2000/svg">
<path fill-rule="evenodd" clip-rule="evenodd" d="M12.613 0.666809H5.3888C2.55749 0.666809 0.667969 2.69397 0.667969 5.59681V12.4035C0.667969 15.3091 2.55244 17.3335 5.3888 17.3335H12.6121C15.4493 17.3335 17.3346 15.309 17.3346 12.4035V5.59681C17.3346 2.6914 15.4495 0.666809 12.613 0.666809ZM5.3888 1.91681H12.613C14.7384 1.91681 16.0846 3.36261 16.0846 5.59681V12.4035C16.0846 14.6378 14.7383 16.0835 12.6121 16.0835H5.3888C3.2636 16.0835 1.91797 14.6379 1.91797 12.4035V5.59681C1.91797 3.36545 3.26825 1.91681 5.3888 1.91681ZM6.55981 6.55198C6.78172 6.33011 7.12894 6.30998 7.3736 6.49155L7.44369 6.55207L9.00013 8.10884L10.5552 6.55378C10.7993 6.3097 11.195 6.3097 11.4391 6.55378C11.661 6.77567 11.6811 7.12289 11.4996 7.36756L11.4391 7.43766L9.88392 8.99281L11.4404 10.5496C11.6844 10.7937 11.6844 11.1894 11.4403 11.4335C11.2184 11.6553 10.8711 11.6755 10.6265 11.4939L10.5564 11.4334L9.00004 9.87669L7.44574 11.431C7.20166 11.6751 6.80593 11.6751 6.56186 11.431C6.33997 11.2091 6.3198 10.8619 6.50134 10.6172L6.56186 10.5471L8.11625 8.99272L6.55972 7.43586C6.31566 7.19176 6.31571 6.79603 6.55981 6.55198Z" fill="#E8E8E8"/>
</svg>
