<svg width="80" height="80" viewBox="0 0 80 80" fill="none" xmlns="http://www.w3.org/2000/svg">
<path d="M35.0091 7.27737L31.6958 9.20233C33.8838 7.93685 36.8694 8.12257 40.1657 10.0134C46.7451 13.8174 52.0521 23.0204 52.0228 30.594C52.0239 34.3295 50.7093 36.9704 48.5704 38.2046L51.8703 36.302C54.0226 35.0454 55.3371 32.4045 55.3361 28.669C55.3653 21.0954 50.0584 11.8924 43.4656 8.11076C41.5565 6.99327 39.7405 6.47837 38.1294 6.48136C36.9735 6.48476 35.9022 6.75156 35.0091 7.27737Z" fill="url(#paint0_radial)"/>
<g opacity="0.3">
<g opacity="0.3">
<path opacity="0.3" d="M51.7386 33.4163L54.9988 31.6706C54.8699 32.2042 54.7082 32.7027 54.5124 33.1618L51.2807 34.8908C51.4645 34.4325 51.6204 33.9441 51.7386 33.4163Z" fill="white"/>
</g>
<g opacity="0.3">
<path opacity="0.3" d="M45.0074 14.005L48.4061 12.1852C48.6553 12.4601 48.9044 12.7338 49.1435 13.0211L45.7448 14.8409C45.5041 14.5544 45.257 14.2769 45.0074 14.005Z" fill="white"/>
</g>
<g opacity="0.3">
<path opacity="0.3" d="M46.2281 15.4442L49.6188 13.6287C49.8442 13.9164 50.0689 14.2052 50.284 14.5033L46.8995 16.3147C46.6822 16.0164 46.4549 15.7318 46.2281 15.4442Z" fill="white"/>
</g>
<g opacity="0.3">
<path opacity="0.3" d="M38.3958 9.17282L41.8664 7.31495C42.2641 7.48272 42.6682 7.67684 43.0778 7.89789L39.6266 9.74537C39.2103 9.52725 38.8002 9.33631 38.3958 9.17282Z" fill="white"/>
</g>
<g opacity="0.3">
<path opacity="0.3" d="M47.332 16.943L50.7159 15.133C50.9208 15.4318 51.1192 15.7353 51.3133 16.0426L47.9359 17.8504C47.7404 17.5432 47.5385 17.2422 47.332 16.943Z" fill="white"/>
</g>
<g opacity="0.3">
<path opacity="0.3" d="M35.7982 8.47094L39.3269 6.58184C39.8454 6.65928 40.3773 6.77599 40.929 6.95559L37.4341 8.82515C36.8731 8.65264 36.3267 8.53469 35.7982 8.47094Z" fill="white"/>
</g>
<g opacity="0.3">
<path opacity="0.3" d="M42.1365 11.3584L45.5621 9.52516C45.8676 9.76309 46.1669 10.014 46.4628 10.273L43.0473 12.1016C42.7483 11.8421 42.4447 11.5949 42.1365 11.3584Z" fill="white"/>
</g>
<g opacity="0.3">
<path opacity="0.3" d="M43.66 12.6352L47.0705 10.8102C47.3431 11.0671 47.6088 11.3381 47.8729 11.6114L44.4661 13.4344C44.1999 13.1623 43.9339 12.8907 43.66 12.6352Z" fill="white"/>
</g>
<g opacity="0.3">
<path opacity="0.3" d="M40.4175 10.1823L43.8549 8.34281C44.2019 8.55581 44.5483 8.77948 44.8872 9.02168L41.4616 10.8548C41.118 10.613 40.769 10.3935 40.4175 10.1823Z" fill="white"/>
</g>
<g opacity="0.3">
<path opacity="0.3" d="M51.6992 27.1572L55.0345 25.3728C55.1019 25.7554 55.1559 26.1363 55.2011 26.5149L51.877 28.294C51.8294 27.9174 51.7702 27.5386 51.6992 27.1572Z" fill="white"/>
</g>
<g opacity="0.3">
<path opacity="0.3" d="M49.2356 20.109L52.6068 18.3051C52.7708 18.6285 52.9213 18.9577 53.0734 19.286L49.709 21.087C49.5555 20.7587 49.4012 20.4315 49.2356 20.109Z" fill="white"/>
</g>
<g opacity="0.3">
<path opacity="0.3" d="M48.3375 18.4983L51.7148 16.6902C51.8996 17.0017 52.0744 17.3179 52.2474 17.6358L48.8763 19.4399C48.7017 19.1229 48.5234 18.8093 48.3375 18.4983Z" fill="white"/>
</g>
<g opacity="0.3">
<path opacity="0.3" d="M50.7101 36.0602L53.8875 34.3597C53.3459 35.1837 52.6704 35.8347 51.8819 36.2931L49.0376 37.9448L49.0156 37.9063C49.677 37.4337 50.2486 36.8188 50.7101 36.0602Z" fill="white"/>
</g>
<g opacity="0.3">
<path opacity="0.3" d="M32.5716 8.79307L32.5312 8.72216L35.0136 7.27773C35.8596 6.78749 36.834 6.52281 37.9007 6.48613L34.2654 8.43242C33.6682 8.48071 33.0985 8.59563 32.5716 8.79307Z" fill="white"/>
</g>
<g opacity="0.3">
<path opacity="0.3" d="M52.0085 31.1752L55.3081 29.4099C55.2842 29.8615 55.2418 30.2939 55.1789 30.7102L51.8965 32.4664C51.9529 32.0535 51.9902 31.6231 52.0085 31.1752Z" fill="white"/>
</g>
<g opacity="0.3">
<path opacity="0.3" d="M50.0346 21.7745L53.3917 19.978C53.5366 20.3136 53.6691 20.6518 53.7996 20.9903L50.4414 22.7874C50.31 22.4487 50.1801 22.1099 50.0346 21.7745Z" fill="white"/>
</g>
<g opacity="0.3">
<path opacity="0.3" d="M51.9804 29.1033L55.2987 27.3275C55.3299 27.733 55.3443 28.1343 55.3466 28.5324L52.0329 30.3052C52.0279 29.9071 52.0154 29.5082 51.9804 29.1033Z" fill="white"/>
</g>
<g opacity="0.3">
<path opacity="0.3" d="M51.2682 25.2955L54.6112 23.5063C54.7082 23.869 54.8001 24.2323 54.8788 24.5944L51.5449 26.3787C51.4635 26.0181 51.3668 25.6573 51.2682 25.2955Z" fill="white"/>
</g>
<g opacity="0.3">
<path opacity="0.3" d="M50.7167 23.503L54.0669 21.7102C54.1894 22.0572 54.3117 22.4049 54.4176 22.7531L51.0664 24.5464C50.9591 24.1983 50.8407 23.8512 50.7167 23.503Z" fill="white"/>
</g>
</g>
<path d="M28.2305 16.8271C28.189 24.3752 33.5177 33.6232 40.0802 37.3875C46.6791 41.1941 52.0034 38.1464 52.0449 30.5983C52.05 23.0079 46.7578 13.8022 40.1953 10.0378C38.2622 8.90721 36.4401 8.4173 34.8192 8.41662C30.9061 8.40539 28.2673 11.4926 28.2305 16.8271Z" fill="url(#paint1_linear)"/>
<path d="M32.9647 19.5912C32.9647 24.1188 36.1552 29.6414 40.1043 31.9238C44.0535 34.2063 47.2626 32.3841 47.2937 27.8503C47.3062 23.3041 44.0971 17.769 40.1479 15.4866C38.9973 14.8273 37.9152 14.5101 36.945 14.5101C34.6004 14.5101 32.9834 16.3697 32.9647 19.5912Z" fill="url(#paint2_radial)"/>
<path d="M19.4599 22.0618L16.1443 23.9918C18.326 22.7209 21.2955 22.8872 24.6247 24.8002C31.1939 28.6003 36.5007 37.8026 36.4646 45.3735C36.4596 49.1145 35.1363 51.7465 33.0121 52.9858L36.3277 51.0559C38.4519 49.8166 39.7752 47.1846 39.7803 43.4436C39.8163 35.8727 34.4808 26.6861 27.9115 22.886C25.9916 21.7705 24.1828 21.2669 22.5687 21.2546C21.4098 21.2545 20.3639 21.5288 19.4599 22.0618Z" fill="url(#paint3_radial)"/>
<g opacity="0.3">
<g opacity="0.3">
<path opacity="0.3" d="M36.1815 48.1957L39.4424 46.45C39.3134 46.9836 39.1521 47.4825 38.9554 47.9414L35.7246 49.6709C35.9076 49.2124 36.0641 48.7237 36.1815 48.1957Z" fill="white"/>
</g>
<g opacity="0.3">
<path opacity="0.3" d="M29.4507 28.7852L32.8495 26.9654C33.0978 27.2402 33.3472 27.5143 33.5869 27.8013L30.1881 29.6211C29.9466 29.3344 29.7004 29.0572 29.4507 28.7852Z" fill="white"/>
</g>
<g opacity="0.3">
<path opacity="0.3" d="M30.6715 30.2232L34.0629 28.4077C34.2883 28.6954 34.5124 28.9845 34.728 29.2823L31.3437 31.0941C31.1256 30.7955 30.8989 30.5106 30.6715 30.2232Z" fill="white"/>
</g>
<g opacity="0.3">
<path opacity="0.3" d="M22.8391 23.9519L26.3091 22.0941C26.7073 22.2615 27.1109 22.4559 27.521 22.6766L24.0699 24.5244C23.6531 24.3066 23.2427 24.1151 22.8391 23.9519Z" fill="white"/>
</g>
<g opacity="0.3">
<path opacity="0.3" d="M31.7752 31.7221L35.1589 29.9117C35.3641 30.2109 35.5626 30.5145 35.7562 30.822L32.3782 32.63C32.1832 32.3226 31.9812 32.0216 31.7752 31.7221Z" fill="white"/>
</g>
<g opacity="0.3">
<path opacity="0.3" d="M20.2415 23.25L23.7695 21.361C24.2889 21.4386 24.8207 21.5553 25.3716 21.7346L21.8774 23.6041C21.3158 23.4319 20.7694 23.314 20.2415 23.25Z" fill="white"/>
</g>
<g opacity="0.3">
<path opacity="0.3" d="M26.5799 26.1374L30.0054 24.3042C30.3112 24.5413 30.6102 24.7931 30.9062 25.0521L27.4906 26.8806C27.1916 26.6212 26.8881 26.3739 26.5799 26.1374Z" fill="white"/>
</g>
<g opacity="0.3">
<path opacity="0.3" d="M28.1033 27.4143L31.5138 25.5892C31.7865 25.8461 32.0521 26.1171 32.3162 26.3904L28.9087 28.2132C28.6433 27.9413 28.3773 27.6697 28.1033 27.4143Z" fill="white"/>
</g>
<g opacity="0.3">
<path opacity="0.3" d="M24.8606 24.962L28.2982 23.1228C28.6457 23.3355 28.9912 23.5589 29.3302 23.8012L25.9056 25.6348C25.562 25.393 25.2124 25.1738 24.8606 24.962Z" fill="white"/>
</g>
<g opacity="0.3">
<path opacity="0.3" d="M36.1433 41.9365L39.4779 40.1521C39.5454 40.5348 39.5994 40.9156 39.6452 41.2939L36.3203 43.073C36.2727 42.6964 36.2143 42.3179 36.1433 41.9365Z" fill="white"/>
</g>
<g opacity="0.3">
<path opacity="0.3" d="M33.6785 34.8876L37.0495 33.0832C37.2147 33.4073 37.3649 33.736 37.5171 34.0643L34.1523 35.866C33.9988 35.5377 33.8445 35.2106 33.6785 34.8876Z" fill="white"/>
</g>
<g opacity="0.3">
<path opacity="0.3" d="M32.7812 33.2779L36.1592 31.4697C36.3439 31.7813 36.5179 32.0972 36.6909 32.4151L33.3199 34.2195C33.1462 33.9027 32.9679 33.5891 32.7812 33.2779Z" fill="white"/>
</g>
<g opacity="0.3">
<path opacity="0.3" d="M35.1528 50.8393L38.3302 49.1387C37.7886 49.9627 37.1132 50.6137 36.3252 51.0722L33.4804 52.7238L33.459 52.6853C34.1198 52.2128 34.6919 51.5979 35.1528 50.8393Z" fill="white"/>
</g>
<g opacity="0.3">
<path opacity="0.3" d="M17.0143 23.5721L16.9746 23.5012L19.457 22.0568C20.3024 21.5665 21.2773 21.3019 22.3434 21.2652L18.7082 23.2115C18.1116 23.2598 17.5413 23.3747 17.0143 23.5721Z" fill="white"/>
</g>
<g opacity="0.3">
<path opacity="0.3" d="M36.4527 45.9557L39.7523 44.1904C39.7276 44.6417 39.6851 45.0742 39.6228 45.4902L36.3396 47.2461C36.3971 46.834 36.4344 46.4036 36.4527 45.9557Z" fill="white"/>
</g>
<g opacity="0.3">
<path opacity="0.3" d="M34.4772 36.5533L37.835 34.7567C37.9794 35.0927 38.1123 35.4305 38.242 35.7688L34.8848 37.5665C34.7529 37.228 34.6232 36.8884 34.4772 36.5533Z" fill="white"/>
</g>
<g opacity="0.3">
<path opacity="0.3" d="M36.4232 43.8827L39.7415 42.1068C39.7724 42.5118 39.788 42.9139 39.7894 43.3118L36.4766 45.0848C36.4707 44.6865 36.4583 44.2875 36.4232 43.8827Z" fill="white"/>
</g>
<g opacity="0.3">
<path opacity="0.3" d="M35.7115 40.0746L39.0546 38.2854C39.1521 38.6478 39.2443 39.0116 39.3222 39.3735L35.9883 41.1578C35.9077 40.7974 35.811 40.4366 35.7115 40.0746Z" fill="white"/>
</g>
<g opacity="0.3">
<path opacity="0.3" d="M35.1604 38.2838L38.5105 36.4911C38.6328 36.8374 38.7551 37.1852 38.8605 37.5337L35.5098 39.3267C35.4025 38.9785 35.2843 38.6307 35.1604 38.2838Z" fill="white"/>
</g>
</g>
<path d="M12.6653 31.6275C12.6605 39.1674 17.9754 48.3583 24.5246 52.1695C31.1108 55.9605 36.4454 52.8988 36.4704 45.3959C36.492 37.7989 31.177 28.6079 24.6278 24.7967C22.6836 23.6997 20.9115 23.1807 19.2711 23.1658C15.3886 23.1769 12.713 26.2726 12.6653 31.6275Z" fill="url(#paint4_radial)"/>
<path d="M17.0501 34.1614C17.0526 38.9141 20.3945 44.732 24.5506 47.139C28.6917 49.5191 32.0923 47.5923 32.0898 42.8397C32.1141 38.0721 28.7573 32.2273 24.6162 29.8472C23.3873 29.1574 22.2423 28.8082 21.223 28.8118C18.757 28.8101 17.0663 30.7718 17.0501 34.1614Z" fill="url(#paint5_radial)"/>
<path d="M66.0897 61.9678C60.2377 66.803 49.753 68.5651 42.671 65.892C39.1578 64.5808 37.1582 62.4156 36.7401 59.9746L37.3896 63.7565C37.7994 66.1796 39.8122 68.3496 43.3073 69.669C50.3943 72.329 60.879 70.567 66.726 65.7449C69.6814 63.3084 70.8858 60.5618 70.4643 58.0897L69.8231 54.3257C70.2445 56.7979 69.0271 59.5396 66.0897 61.9678Z" fill="url(#paint6_radial)"/>
<g opacity="0.3">
<g opacity="0.3">
<path opacity="0.3" d="M40.1216 64.624L40.6173 68.2895C40.1619 67.9822 39.752 67.6558 39.3896 67.3119L38.8996 63.6796C39.2653 64.0113 39.6678 64.3289 40.1216 64.624Z" fill="white"/>
</g>
<g opacity="0.3">
<path opacity="0.3" d="M60.6682 65.1064L61.1847 68.9257C60.8394 69.0637 60.4953 69.2015 60.1426 69.3251L59.6272 65.505C59.9792 65.3797 60.3249 65.2454 60.6682 65.1064Z" fill="white"/>
</g>
<g opacity="0.3">
<path opacity="0.3" d="M58.8903 65.7462L59.4055 69.5577C59.056 69.6685 58.7073 69.7773 58.3529 69.8751L57.8393 66.0709C58.1941 65.9717 58.5415 65.8581 58.8903 65.7462Z" fill="white"/>
</g>
<g opacity="0.3">
<path opacity="0.3" d="M67.5036 60.6071L68.0305 64.5071C67.7344 64.8222 67.4112 65.1323 67.061 65.4393L66.5374 61.5593C66.8866 61.245 67.2101 60.9281 67.5036 60.6071Z" fill="white"/>
</g>
<g opacity="0.3">
<path opacity="0.3" d="M57.1032 66.2605L57.6161 70.0636C57.264 70.1512 56.9103 70.2316 56.5539 70.3056L56.0412 66.5085C56.3981 66.4333 56.7501 66.3494 57.1032 66.2605Z" fill="white"/>
</g>
<g opacity="0.3">
<path opacity="0.3" d="M69.0655 58.4172L69.6015 62.3831C69.3473 62.8431 69.0525 63.2999 68.6919 63.7533L68.1616 59.8255C68.5187 59.3596 68.8208 58.8889 69.0655 58.4172Z" fill="white"/>
</g>
<g opacity="0.3">
<path opacity="0.3" d="M64.1534 63.3393L64.673 67.1897C64.3444 67.3925 64.0034 67.5847 63.6573 67.7721L63.1386 63.9327C63.4856 63.7434 63.8241 63.5454 64.1534 63.3393Z" fill="white"/>
</g>
<g opacity="0.3">
<path opacity="0.3" d="M62.4157 64.3194L62.9334 68.1533C62.5968 68.319 62.25 68.4726 61.9015 68.6239L61.3852 64.7959C61.7332 64.6416 62.0799 64.4868 62.4157 64.3194Z" fill="white"/>
</g>
<g opacity="0.3">
<path opacity="0.3" d="M65.8532 62.1452L66.3752 66.0088C66.0532 66.2602 65.723 66.5053 65.3783 66.7387L64.8582 62.8891C65.2036 62.6512 65.5324 62.4008 65.8532 62.1452Z" fill="white"/>
</g>
<g opacity="0.3">
<path opacity="0.3" d="M46.0016 66.7807L46.5072 70.5293C46.1245 70.4588 45.75 70.3761 45.379 70.2867L44.875 66.5496C45.2445 66.6367 45.6201 66.7143 46.0016 66.7807Z" fill="white"/>
</g>
<g opacity="0.3">
<path opacity="0.3" d="M53.467 66.9355L53.9786 70.724C53.6173 70.766 53.2569 70.7919 52.8961 70.8197L52.3848 67.0379C52.746 67.0089 53.1064 66.9781 53.467 66.9355Z" fill="white"/>
</g>
<g opacity="0.3">
<path opacity="0.3" d="M55.2862 66.6546L55.7991 70.4516C55.4426 70.5158 55.0852 70.569 54.7269 70.6192L54.2156 66.8301C54.5737 66.7774 54.9299 66.72 55.2862 66.6546Z" fill="white"/>
</g>
<g opacity="0.3">
<path opacity="0.3" d="M38.0091 62.7346L38.4914 66.3063C37.9089 65.511 37.5354 64.6503 37.3813 63.7512L36.8281 60.5084L36.8727 60.5023C37.0836 61.2865 37.4602 62.0372 38.0091 62.7346Z" fill="white"/>
</g>
<g opacity="0.3">
<path opacity="0.3" d="M69.8949 55.2783L69.9762 55.2654L70.4603 58.0962C70.6242 59.0602 70.5319 60.0658 70.1932 61.0774L69.6406 56.9911C69.8044 56.4146 69.8961 55.8413 69.8949 55.2783Z" fill="white"/>
</g>
<g opacity="0.3">
<path opacity="0.3" d="M42.1294 65.6664L42.6289 69.3751C42.2148 69.1947 41.8244 69.003 41.4565 68.799L40.959 65.1092C41.3255 65.3072 41.7162 65.4926 42.1294 65.6664Z" fill="white"/>
</g>
<g opacity="0.3">
<path opacity="0.3" d="M51.6303 67.0999L52.1401 70.8738C51.7742 70.8912 51.4118 70.8982 51.0489 70.901L50.5391 67.127C50.903 67.1223 51.2652 67.119 51.6303 67.0999Z" fill="white"/>
</g>
<g opacity="0.3">
<path opacity="0.3" d="M44.087 66.3577L44.5906 70.0868C44.2005 69.9748 43.8188 69.8481 43.4443 69.7105L42.9426 65.9867C43.3172 66.1205 43.696 66.2489 44.087 66.3577Z" fill="white"/>
</g>
<g opacity="0.3">
<path opacity="0.3" d="M47.9006 67.0293L48.4074 70.787C48.0349 70.7509 47.6612 70.71 47.2951 70.6576L46.7891 66.9097C47.1549 66.9609 47.5273 66.9958 47.9006 67.0293Z" fill="white"/>
</g>
<g opacity="0.3">
<path opacity="0.3" d="M49.7743 67.1301L50.2822 70.8956C49.9142 70.8885 49.5464 70.882 49.1824 70.8589L48.6738 67.0928C49.0381 67.1134 49.4048 67.125 49.7743 67.1301Z" fill="white"/>
</g>
</g>
<path d="M40.4784 52.3232C34.6303 57.1741 35.6245 63.2308 42.652 65.9072C49.7397 68.5502 60.2152 66.8001 66.1101 61.9626C71.9448 57.1584 70.964 51.055 63.8763 48.4119C61.6385 47.5667 59.0658 47.1822 56.3857 47.1719C50.6713 47.1507 44.4663 49.0136 40.4784 52.3232Z" fill="url(#paint7_radial)"/>
<path d="M45.4613 54.2007C41.8737 57.1611 42.4903 60.8924 46.7935 62.4847C51.1306 64.1285 57.5408 63.0362 61.1196 60.1185C64.6645 57.1494 64.0907 53.4269 59.7535 51.7831C58.3874 51.2811 56.832 51.0519 55.1901 51.0277C51.6666 51.0636 47.9159 52.2103 45.4613 54.2007Z" fill="url(#paint8_radial)"/>
<defs>
<radialGradient id="paint0_radial" cx="0" cy="0" r="1" gradientUnits="userSpaceOnUse" gradientTransform="translate(50.3178 16.6031) rotate(121.016) scale(26.0232)">
<stop stop-color="#00D5FF"/>
<stop offset="0.49" stop-color="#3A4AFF"/>
<stop offset="1" stop-color="#7E20FF"/>
</radialGradient>
<linearGradient id="paint1_linear" x1="23.5992" y1="4.54691" x2="60.0273" y2="46.7626" gradientUnits="userSpaceOnUse">
<stop stop-color="#00D5FF"/>
<stop offset="0.49" stop-color="#3A4AFF"/>
<stop offset="1" stop-color="#7E20FF"/>
</linearGradient>
<radialGradient id="paint2_radial" cx="0" cy="0" r="1" gradientUnits="userSpaceOnUse" gradientTransform="translate(42.2808 22.5147) rotate(33.6901) scale(22.4236)">
<stop stop-color="#00D5FF"/>
<stop offset="0.49" stop-color="#3A4AFF"/>
<stop offset="1" stop-color="#7E20FF"/>
</radialGradient>
<radialGradient id="paint3_radial" cx="0" cy="0" r="1" gradientUnits="userSpaceOnUse" gradientTransform="translate(33.7533 27.6831) rotate(61.2664) scale(32.779)">
<stop stop-color="#00D5FF"/>
<stop offset="0.49" stop-color="#3A4AFF"/>
<stop offset="1" stop-color="#7E20FF"/>
</radialGradient>
<radialGradient id="paint4_radial" cx="0" cy="0" r="1" gradientUnits="userSpaceOnUse" gradientTransform="translate(14.4499 24.8905) rotate(61.324) scale(42.1195)">
<stop stop-color="#00D5FF"/>
<stop offset="0.49" stop-color="#3A4AFF"/>
<stop offset="1" stop-color="#7E20FF"/>
</radialGradient>
<radialGradient id="paint5_radial" cx="0" cy="0" r="1" gradientUnits="userSpaceOnUse" gradientTransform="translate(24.3019 32.7688) rotate(60.915) scale(30.7744)">
<stop stop-color="#00D5FF"/>
<stop offset="0.49" stop-color="#3A4AFF"/>
<stop offset="1" stop-color="#7E20FF"/>
</radialGradient>
<radialGradient id="paint6_radial" cx="0" cy="0" r="1" gradientUnits="userSpaceOnUse" gradientTransform="translate(53.3736 60.8062) rotate(-69.533) scale(13.992)">
<stop stop-color="#00D5FF"/>
<stop offset="0.49" stop-color="#3A4AFF"/>
<stop offset="1" stop-color="#7E20FF"/>
</radialGradient>
<radialGradient id="paint7_radial" cx="0" cy="0" r="1" gradientUnits="userSpaceOnUse" gradientTransform="translate(48.045 71.911) rotate(-73.9761) scale(48.6572)">
<stop stop-color="#00D5FF"/>
<stop offset="0.49" stop-color="#3A4AFF"/>
<stop offset="1" stop-color="#7E20FF"/>
</radialGradient>
<radialGradient id="paint8_radial" cx="0" cy="0" r="1" gradientUnits="userSpaceOnUse" gradientTransform="translate(51.1175 73.2056) rotate(-78.4399) scale(43.6057)">
<stop stop-color="#00D5FF"/>
<stop offset="0.49" stop-color="#3A4AFF"/>
<stop offset="1" stop-color="#7E20FF"/>
</radialGradient>
</defs>
</svg>
