<svg width="80" height="80" viewBox="0 0 80 80" fill="none" xmlns="http://www.w3.org/2000/svg">
<path d="M52.6465 55.9668L53.1096 60.8826C53.1808 61.4525 53.5964 62.0106 54.3444 62.4499C56.0186 63.4117 58.7258 63.4117 60.4 62.4499C61.2431 61.9631 61.6587 61.3338 61.6587 60.7044L64.5202 49.1038L52.6465 55.9668Z" fill="url(#paint0_linear)"/>
<path d="M31.7383 65.0658L32.5809 68.7732C32.6503 69.3481 33.0666 69.9032 33.82 70.3394C35.4952 71.3009 38.2113 71.3009 39.8767 70.3394C40.7093 69.8537 41.1356 69.2192 41.1356 68.5947L41.651 64.9667L31.7383 65.0658Z" fill="url(#paint1_linear)"/>
<path d="M23.0325 64.3546C23.0352 64.9111 23.3974 65.459 24.1281 65.8822C25.5811 66.7191 27.941 66.7184 29.3955 65.8775C30.8501 65.0365 30.854 63.6819 29.3927 62.8354C27.9397 61.9985 22.8024 61.8247 22.8024 61.8247L23.0325 64.3546Z" fill="url(#paint2_linear)"/>
<path d="M54.7186 17.7065C54.5697 17.8129 54.4314 17.9225 54.3112 18.0493C52.3164 18.0499 51.1007 19.3253 50.6852 20.1555C50.5043 20.5205 50.6471 20.9721 51.0227 21.1562C51.3877 21.3371 51.8393 21.1944 52.0202 20.8294C52.0773 20.7184 52.4451 20.0836 53.2234 19.7485C53.0553 20.4556 53.1671 21.2011 53.5685 21.953C54.3334 23.3518 56.2648 24.6734 57.4688 24.281C57.4828 24.2736 57.4967 24.2661 57.5106 24.2587C58.353 23.9431 58.9221 22.9145 58.8877 21.7609C58.8479 20.2791 57.8056 19.0642 56.232 18.4462C57.8169 17.6446 58.7469 17.9621 59.2689 18.2023C60.9284 18.9981 60.6005 20.4616 61.01 20.4576C61.6279 20.4587 61.7901 18.0817 59.9307 16.9453C59.3706 16.6002 58.7415 16.4441 58.0883 16.4439C57.0044 16.4412 55.8301 16.8893 54.7186 17.7065ZM54.7788 21.0025C54.5785 20.5101 54.626 20.0463 54.9248 19.6005C55.1128 19.6343 55.3083 19.682 55.5112 19.7436C57.1739 20.2604 57.3796 21.3494 57.3952 21.7974C57.4071 22.3726 57.1566 22.7747 56.996 22.8426C56.9927 22.8533 56.9821 22.85 56.9714 22.8468C56.5373 22.8549 55.2208 22.0817 54.7788 21.0025Z" fill="url(#paint3_linear)"/>
<path d="M32.1566 21.3738C18.0176 26.566 10.0844 40.3204 14.4304 52.0732C18.7395 63.8354 33.7221 69.1679 47.8517 63.9387C61.9537 58.756 69.8869 45.0016 65.5779 33.2393C62.3675 24.54 53.3321 19.3773 43.1317 19.3518C39.5529 19.3628 35.8204 20.0033 32.1566 21.3738Z" fill="url(#paint4_radial)"/>
<path d="M25.457 61.99L25.4992 61.9652L25.4969 61.9629C25.4842 61.9733 25.472 61.9825 25.457 61.99Z" fill="#CE6480"/>
<path d="M15.9648 25.2027L23.6702 31.0697C24.7282 30.3845 24.9572 28.9287 24.1502 27.9604C22.9083 26.4785 20.8871 24.6821 18.3477 24.679C17.5985 24.677 16.7986 24.8402 15.9648 25.2027Z" fill="url(#paint5_linear)"/>
<path d="M32.0982 36.2279C38.7496 37.5508 41.2134 47.5097 41.2134 47.5097C48.7479 44.8662 48.2483 36.7555 44.3659 34.6158C42.8287 33.7759 41.2919 33.4569 39.8436 33.4661C35.5624 33.4624 32.0982 36.2279 32.0982 36.2279Z" fill="url(#paint6_linear)"/>
<path d="M15.447 25.6504C13.1409 28.5167 17.2522 34.3392 17.2522 34.3392C18.8104 31.0656 23.6812 31.0769 23.6812 31.0769C23.6812 31.0769 19.3731 25.0498 16.6776 25.0493C16.2069 25.0493 15.7916 25.2249 15.447 25.6504Z" fill="url(#paint7_linear)"/>
<path d="M32.1113 36.2289C32.1113 36.2289 36.8962 39.0376 41.2137 47.5019C41.2137 47.5019 45.8328 39.8742 42.2665 35.9107C41.3837 34.9253 40.0611 34.5983 38.6681 34.5959C35.5826 34.589 32.1113 36.2289 32.1113 36.2289Z" fill="url(#paint8_linear)"/>
<path d="M11.8417 50.2165C8.66092 52.3138 23.0827 60.2415 23.0827 60.2415C23.0827 60.2415 25.4709 57.8872 25.4644 53.9024C25.4652 51.1882 23.913 48.6457 20.1503 47.6789C19.7539 47.5684 19.321 47.5299 18.8879 47.5274C16.845 47.5232 14.3704 48.5488 11.8417 50.2165Z" fill="url(#paint9_linear)"/>
<path d="M10.7399 52.6356C11.0795 55.3181 14.2545 58.7063 17.8414 60.2073C21.4283 61.7083 24.0636 60.7715 23.724 58.0891C23.3844 55.4066 20.1959 52.0131 16.609 50.5121C15.454 50.0277 14.4008 49.8022 13.5112 49.7973C11.6484 49.8015 10.5116 50.8257 10.7399 52.6356Z" fill="url(#paint10_linear)"/>
<path d="M29.8582 26.288C29.3277 26.7542 29.2795 27.574 29.7457 28.1045C29.9708 28.3617 30.2762 28.5064 30.5977 28.5225C30.9353 28.5546 31.2729 28.4582 31.5462 28.2171C31.6105 28.1688 37.1887 23.3301 44.1977 23.4104C44.905 23.4104 45.4998 22.8478 45.4998 22.1405C45.4998 21.4331 44.9372 20.8544 44.2299 20.8383C44.1656 20.8383 44.1013 20.8383 44.0209 20.8383C36.1117 20.8383 30.1154 26.0629 29.8582 26.288Z" fill="url(#paint11_linear)"/>
<path d="M44.1605 21.4024C36.4092 21.3141 30.5195 26.4468 30.2724 26.6656C29.7614 27.1183 29.7134 27.8996 30.1656 28.4117C30.3838 28.6577 30.6789 28.798 30.9832 28.8246C31.3094 28.854 31.6472 28.7541 31.9123 28.5209C31.966 28.4735 37.3556 23.8004 44.1322 23.8784C44.8153 23.8865 45.376 23.3385 45.3841 22.6548C45.3922 21.9706 44.8425 21.4105 44.1605 21.4024Z" fill="#010A24"/>
<path d="M36.4933 9.69655C34.5337 10.8318 32.9525 13.5772 32.955 15.8296C32.9546 16.9498 33.36 17.7348 33.9945 18.1063L34.9769 18.6806C34.3424 18.3091 33.9488 17.5208 33.945 16.4082C33.9348 14.1515 35.5161 11.4061 37.4833 10.2751C38.4712 9.70198 39.3585 9.65338 40.0049 10.0215L39.0183 9.45488C38.747 9.29454 38.4332 9.21075 38.0924 9.21198C37.6105 9.21507 37.0633 9.37208 36.4933 9.69655Z" fill="url(#paint12_linear)"/>
<g opacity="0.3">
<g opacity="0.3">
<path opacity="0.3" d="M34.0272 17.2469L33.0548 16.7266C33.0928 16.8858 33.1408 17.0346 33.1998 17.1716L34.1636 17.6873C34.1093 17.5501 34.0624 17.4039 34.0272 17.2469Z" fill="white"/>
</g>
<g opacity="0.3">
<path opacity="0.3" d="M36.0332 11.4584L35.0198 10.9156C34.9456 10.9977 34.871 11.0796 34.7994 11.1657L35.8131 11.708C35.8847 11.6219 35.9586 11.5403 36.0332 11.4584Z" fill="white"/>
</g>
<g opacity="0.3">
<path opacity="0.3" d="M35.666 11.8881L34.6549 11.347C34.5874 11.4327 34.5205 11.5187 34.4565 11.6076L35.4656 12.1475C35.5306 12.0592 35.5983 11.973 35.666 11.8881Z" fill="white"/>
</g>
<g opacity="0.3">
<path opacity="0.3" d="M37.998 10.0174L36.9633 9.46302C36.8441 9.51314 36.7239 9.57124 36.6021 9.63704L37.6311 10.1876C37.7556 10.1226 37.8779 10.0656 37.998 10.0174Z" fill="white"/>
</g>
<g opacity="0.3">
<path opacity="0.3" d="M35.3379 12.3343L34.3281 11.7945C34.2678 11.884 34.2082 11.9746 34.1505 12.0655L35.1579 12.6048C35.2165 12.5136 35.2763 12.4238 35.3379 12.3343Z" fill="white"/>
</g>
<g opacity="0.3">
<path opacity="0.3" d="M38.7754 9.80766L37.7235 9.24363C37.5689 9.26686 37.4098 9.3021 37.246 9.3558L38.2883 9.91336C38.4553 9.86207 38.6183 9.82694 38.7754 9.80766Z" fill="white"/>
</g>
<g opacity="0.3">
<path opacity="0.3" d="M36.8926 10.6695L35.8702 10.1225C35.7799 10.1934 35.69 10.2684 35.6019 10.345L36.6209 10.8908C36.7101 10.8135 36.8007 10.7395 36.8926 10.6695Z" fill="white"/>
</g>
<g opacity="0.3">
<path opacity="0.3" d="M36.4219 11.0505L35.4042 10.5059C35.3228 10.5821 35.2435 10.6629 35.1648 10.7451L36.1807 11.2882C36.2602 11.207 36.3394 11.1262 36.4219 11.0505Z" fill="white"/>
</g>
<g opacity="0.3">
<path opacity="0.3" d="M37.4043 10.3179L36.3795 9.76938C36.2754 9.83288 36.1731 9.89927 36.0716 9.97137L37.0931 10.5187C37.1954 10.4464 37.2992 10.3808 37.4043 10.3179Z" fill="white"/>
</g>
<g opacity="0.3">
<path opacity="0.3" d="M34.0311 15.3803L33.0369 14.848C33.0164 14.9622 33.0003 15.0754 32.9863 15.1884L33.978 15.7193C33.9927 15.6074 34.0101 15.4942 34.0311 15.3803Z" fill="white"/>
</g>
<g opacity="0.3">
<path opacity="0.3" d="M34.7734 13.2781L33.7685 12.7401C33.7188 12.8367 33.6743 12.9346 33.6289 13.0328L34.6323 13.5699C34.6781 13.472 34.7237 13.3746 34.7734 13.2781Z" fill="white"/>
</g>
<g opacity="0.3">
<path opacity="0.3" d="M35.0312 12.7984L34.0238 12.2592C33.9685 12.3527 33.9163 12.4466 33.8648 12.5415L34.8702 13.0797C34.923 12.9848 34.976 12.8907 35.0312 12.7984Z" fill="white"/>
</g>
<g opacity="0.3">
<path opacity="0.3" d="M34.3225 18.0357L33.375 17.5282C33.5367 17.7742 33.7382 17.9688 33.9732 18.105L34.822 18.5976L34.8278 18.586C34.6309 18.4446 34.4606 18.2621 34.3225 18.0357Z" fill="white"/>
</g>
<g opacity="0.3">
<path opacity="0.3" d="M39.7297 9.90336L39.7418 9.88257L39.0016 9.45181C38.7492 9.30515 38.4588 9.22604 38.1406 9.21565L39.2244 9.79538C39.4029 9.81039 39.5726 9.84388 39.7297 9.90336Z" fill="white"/>
</g>
<g opacity="0.3">
<path opacity="0.3" d="M33.9445 16.5782L32.961 16.0518C32.9676 16.1863 32.9802 16.3155 32.9993 16.439L33.978 16.9635C33.9613 16.8406 33.9504 16.7116 33.9445 16.5782Z" fill="white"/>
</g>
<g opacity="0.3">
<path opacity="0.3" d="M34.5295 13.7753L33.5278 13.2387C33.4847 13.3387 33.4454 13.4402 33.4064 13.5411L34.4078 14.077C34.4469 13.976 34.4856 13.8756 34.5295 13.7753Z" fill="white"/>
</g>
<g opacity="0.3">
<path opacity="0.3" d="M33.9529 15.9614L32.9631 15.4319C32.9549 15.5526 32.9503 15.6726 32.9493 15.7906L33.9373 16.3198C33.939 16.2016 33.9428 16.0818 33.9529 15.9614Z" fill="white"/>
</g>
<g opacity="0.3">
<path opacity="0.3" d="M34.1641 14.8246L33.167 14.2905C33.1381 14.3995 33.11 14.5069 33.0871 14.6158L34.0814 15.1478C34.1056 15.0402 34.1345 14.9325 34.1641 14.8246Z" fill="white"/>
</g>
<g opacity="0.3">
<path opacity="0.3" d="M34.3281 14.2901L33.3286 13.7554C33.2927 13.8593 33.2557 13.9627 33.2242 14.0669L34.2244 14.6014C34.2557 14.4976 34.2914 14.3942 34.3281 14.2901Z" fill="white"/>
</g>
</g>
<path d="M37.4831 10.274C35.5102 11.3997 33.9365 14.1363 33.9385 16.3987C33.9405 18.6612 35.5446 19.5519 37.4916 18.4292C39.4645 17.3035 41.0382 14.5669 41.0362 12.3045C41.0323 10.7 40.216 9.79583 39.0557 9.77393C38.5825 9.77677 38.0496 9.94446 37.4831 10.274Z" fill="url(#paint13_linear)"/>
<defs>
<linearGradient id="paint0_linear" x1="52.6465" y1="56.1413" x2="64.5202" y2="56.1413" gradientUnits="userSpaceOnUse">
<stop stop-color="#00D5FF"/>
<stop offset="0.49" stop-color="#3A4AFF"/>
<stop offset="1" stop-color="#7E20FF"/>
</linearGradient>
<linearGradient id="paint1_linear" x1="31.7383" y1="68.0158" x2="41.651" y2="68.0158" gradientUnits="userSpaceOnUse">
<stop stop-color="#00D5FF"/>
<stop offset="0.49" stop-color="#3A4AFF"/>
<stop offset="1" stop-color="#7E20FF"/>
</linearGradient>
<linearGradient id="paint2_linear" x1="21.6384" y1="63.9237" x2="30.5601" y2="64.5996" gradientUnits="userSpaceOnUse">
<stop stop-color="#00D5FF"/>
<stop offset="0.49" stop-color="#3A4AFF"/>
<stop offset="1" stop-color="#7E20FF"/>
</linearGradient>
<linearGradient id="paint3_linear" x1="58.6739" y1="11.3727" x2="55.4296" y2="22.0518" gradientUnits="userSpaceOnUse">
<stop stop-color="#00D5FF"/>
<stop offset="0.79" stop-color="#3A4AFF"/>
<stop offset="1" stop-color="#7E20FF"/>
</linearGradient>
<radialGradient id="paint4_radial" cx="0" cy="0" r="1" gradientUnits="userSpaceOnUse" gradientTransform="translate(37.3398 27.6318) rotate(-14.3552) scale(38.1294 38.1143)">
<stop stop-color="#00D5FF"/>
<stop offset="0.72" stop-color="#3A4AFF"/>
<stop offset="1" stop-color="#7E20FF"/>
</radialGradient>
<linearGradient id="paint5_linear" x1="21.8546" y1="25.3952" x2="16.9206" y2="32.3569" gradientUnits="userSpaceOnUse">
<stop stop-color="#00D5FF"/>
<stop offset="0.49" stop-color="#3A4AFF"/>
<stop offset="1" stop-color="#7E20FF"/>
</linearGradient>
<linearGradient id="paint6_linear" x1="43.7176" y1="33.6337" x2="30.5378" y2="51.8151" gradientUnits="userSpaceOnUse">
<stop stop-color="#00D5FF"/>
<stop offset="0.49" stop-color="#3A4AFF"/>
<stop offset="1" stop-color="#7E20FF"/>
</linearGradient>
<linearGradient id="paint7_linear" x1="14.7459" y1="29.6921" x2="23.6784" y2="29.6921" gradientUnits="userSpaceOnUse">
<stop stop-color="#00D5FF"/>
<stop offset="0.49" stop-color="#3A4AFF"/>
<stop offset="1" stop-color="#7E20FF"/>
</linearGradient>
<linearGradient id="paint8_linear" x1="32.1125" y1="41.0481" x2="43.619" y2="41.0481" gradientUnits="userSpaceOnUse">
<stop stop-color="#00D5FF"/>
<stop offset="0.49" stop-color="#3A4AFF"/>
<stop offset="1" stop-color="#7E20FF"/>
</linearGradient>
<linearGradient id="paint9_linear" x1="22.5657" y1="45.3384" x2="15.2661" y2="59.7348" gradientUnits="userSpaceOnUse">
<stop stop-color="#00D5FF"/>
<stop offset="0.49" stop-color="#3A4AFF"/>
<stop offset="1" stop-color="#7E20FF"/>
</linearGradient>
<linearGradient id="paint10_linear" x1="19.9551" y1="48.4154" x2="14.6379" y2="61.969" gradientUnits="userSpaceOnUse">
<stop stop-color="#00D5FF"/>
<stop offset="0.79" stop-color="#3A4AFF"/>
<stop offset="1" stop-color="#7E20FF"/>
</linearGradient>
<linearGradient id="paint11_linear" x1="29.4242" y1="24.688" x2="45.4998" y2="24.688" gradientUnits="userSpaceOnUse">
<stop stop-color="#00D5FF"/>
<stop offset="0.49" stop-color="#3A4AFF"/>
<stop offset="1" stop-color="#7E20FF"/>
</linearGradient>
<linearGradient id="paint12_linear" x1="32.7547" y1="11.7133" x2="40.4091" y2="15.9545" gradientUnits="userSpaceOnUse">
<stop stop-color="#00D5FF"/>
<stop offset="0.49" stop-color="#3A4AFF"/>
<stop offset="1" stop-color="#7E20FF"/>
</linearGradient>
<linearGradient id="paint13_linear" x1="36.8291" y1="8.77196" x2="39.8706" y2="34.7261" gradientUnits="userSpaceOnUse">
<stop stop-color="#00D5FF"/>
<stop offset="0.49" stop-color="#3A4AFF"/>
<stop offset="1" stop-color="#7E20FF"/>
</linearGradient>
</defs>
</svg>
