<svg width="32" height="32" viewBox="0 0 32 32" fill="none" xmlns="http://www.w3.org/2000/svg">
<rect width="32" height="32" rx="8" fill="url(#paint0_linear_4152_40201)"/>
<path d="M16 7C11.0305 7 7 11.1316 7 16.2275C7 20.3046 9.5785 23.7633 13.1552 24.9837C13.6045 25.069 13.75 24.783 13.75 24.54V22.8221C11.2465 23.3804 10.7253 21.7333 10.7253 21.7333C10.3158 20.6667 9.7255 20.383 9.7255 20.383C8.90875 19.8101 9.78775 19.8224 9.78775 19.8224C10.6915 19.887 11.167 20.7736 11.167 20.7736C11.9695 22.1839 13.2723 21.7763 13.786 21.5403C13.8663 20.9443 14.0995 20.5368 14.3575 20.3069C12.3588 20.0723 10.2572 19.2811 10.2572 15.7462C10.2572 14.738 10.609 13.9153 11.1842 13.2693C11.0912 13.0363 10.783 12.0974 11.272 10.8271C11.272 10.8271 12.028 10.5795 13.7477 11.7729C14.4655 11.5684 15.235 11.4661 16 11.4623C16.765 11.4661 17.5352 11.5684 18.2545 11.7729C19.9727 10.5795 20.7272 10.8271 20.7272 10.8271C21.217 12.0982 20.9087 13.0371 20.8158 13.2693C21.3932 13.9153 21.742 14.7388 21.742 15.7462C21.742 19.2903 19.6368 20.0708 17.6327 20.2992C17.9552 20.5852 18.25 21.1466 18.25 22.0078V24.54C18.25 24.7853 18.394 25.0736 18.8507 24.9829C22.4245 23.761 25 20.303 25 16.2275C25 11.1316 20.9703 7 16 7Z" fill="#00010D"/>
<defs>
<linearGradient id="paint0_linear_4152_40201" x1="-3.2" y1="18.6667" x2="26.1333" y2="34.6667" gradientUnits="userSpaceOnUse">
<stop stop-color="#00D5FF"/>
<stop offset="0.581619" stop-color="#3A4AFF"/>
<stop offset="1" stop-color="#7E20FF"/>
</linearGradient>
</defs>
</svg>
