<svg width="32" height="32" viewBox="0 0 32 32" fill="none" xmlns="http://www.w3.org/2000/svg">
<path d="M20.74 8.56353C21.4842 7.81932 22.6908 7.81932 23.435 8.56353C24.1116 9.24008 24.1731 10.2988 23.6195 11.0448L23.435 11.2586L11.259 23.4345C10.5148 24.1787 9.30823 24.1787 8.56402 23.4345C7.88746 22.758 7.82596 21.6993 8.3795 20.9532L8.56402 20.7395L20.74 8.56353Z" fill="white"/>
<path d="M8.5583 8.55802C9.23492 7.88153 10.2936 7.82014 11.0396 8.37376L11.2533 8.5583L23.4394 20.747C24.1836 21.4912 24.1834 22.6979 23.4392 23.442C22.7625 24.1185 21.7038 24.1799 20.9579 23.6262L20.7441 23.4417L8.55802 11.253C7.81388 10.5088 7.81401 9.30215 8.5583 8.55802Z" fill="white"/>
</svg>
