<svg width="16" height="16" viewBox="0 0 16 16" fill="none" xmlns="http://www.w3.org/2000/svg">
<path d="M15.9999 7.99995C15.9999 12.4183 12.4183 16 8 16C3.5817 16 0 12.4183 0 7.99995C0 3.5817 3.5817 0 8 0C12.4182 0 15.9999 3.5817 15.9999 7.99995Z" fill="#EDEFF0"/>
<path d="M7.94168 2.66669L7.87012 2.90976V9.96259L7.94168 10.034L11.2155 8.09883L7.94168 2.66669Z" fill="#343434"/>
<path d="M7.94086 2.66669L4.66699 8.09883L7.94086 10.034V6.61074V2.66669Z" fill="#8C8C8C"/>
<path d="M7.9417 10.6541L7.90137 10.7033V13.2156L7.9417 13.3334L11.2175 8.71997L7.9417 10.6541Z" fill="#3C3C3B"/>
<path d="M7.94086 13.3334V10.6541L4.66699 8.71997L7.94086 13.3334Z" fill="#8C8C8C"/>
<path d="M7.94336 10.0338L11.2171 8.09869L7.94336 6.6106V10.0338Z" fill="#141414"/>
<path d="M4.66699 8.09869L7.94086 10.0338V6.6106L4.66699 8.09869Z" fill="#393939"/>
</svg>
