<svg width="12" height="14" viewBox="0 0 12 14" fill="none" xmlns="http://www.w3.org/2000/svg">
<path fill-rule="evenodd" clip-rule="evenodd" d="M0.15327 10.0943C0.00722208 10.2904 0.0234496 10.5692 0.201952 10.7469L2.93306 13.4654L2.98925 13.5137C3.18533 13.6585 3.46307 13.6417 3.64017 13.4638L3.68845 13.4076C3.83323 13.2115 3.81645 12.9338 3.63853 12.7567L1.76547 10.8926H9.63358L9.70142 10.888C9.94547 10.8549 10.1336 10.6457 10.1336 10.3926C10.1336 10.1164 9.90972 9.89258 9.63358 9.89258H1.76556L3.63853 8.02836L3.68708 7.97239C3.83276 7.77698 3.81727 7.49917 3.64017 7.32125C3.44536 7.12554 3.12878 7.12481 2.93306 7.31962L0.201952 10.0381L0.19895 10.0416C0.183908 10.0569 0.169839 10.0731 0.156845 10.0902L0.15327 10.0943ZM2.29625 3.27818C2.0522 3.31129 1.86409 3.52048 1.86409 3.77361C1.86409 4.04976 2.08795 4.27361 2.36409 4.27361H10.2319L8.35914 6.13784L8.3106 6.1938C8.16491 6.38921 8.1804 6.66702 8.3575 6.84494C8.55231 7.04066 8.8689 7.04139 9.06461 6.84658L11.7957 4.12806L11.7987 4.12459C11.8138 4.10933 11.8278 4.09311 11.8408 4.07603L11.8444 4.0719C11.9904 3.87583 11.9742 3.597 11.7957 3.41932L9.06461 0.7008L9.00842 0.652517C8.81234 0.507734 8.5346 0.524513 8.3575 0.702434C8.16269 0.898147 8.16342 1.21473 8.35914 1.40954L10.2313 3.27361H2.36409L2.29625 3.27818Z" fill="#79829C"/>
</svg>
