<svg width="16" height="16" viewBox="0 0 16 16" fill="none" xmlns="http://www.w3.org/2000/svg">
<path d="M8 16C12.4183 16 16 12.4183 16 8C16 3.58172 12.4183 0 8 0C3.58172 0 0 3.58172 0 8C0 12.4183 3.58172 16 8 16Z" fill="#FF0420"/>
<path d="M5.66805 10.1263C5.1917 10.1263 4.80143 10.0142 4.49721 9.79001C4.19699 9.56185 4.04688 9.23763 4.04688 8.81731C4.04688 8.72924 4.05689 8.62115 4.07689 8.49305C4.12895 8.20486 4.203 7.85859 4.29907 7.4543C4.57126 6.3535 5.27378 5.8031 6.40661 5.8031C6.71484 5.8031 6.99103 5.85513 7.23522 5.9592C7.47941 6.05926 7.67154 6.21139 7.81163 6.41555C7.95173 6.61568 8.02181 6.85587 8.02181 7.13606C8.02181 7.22012 8.01179 7.3262 7.99176 7.4543C7.93173 7.81056 7.85967 8.15683 7.7756 8.49305C7.63551 9.04147 7.39333 9.45177 7.04908 9.72396C6.70482 9.99216 6.2445 10.1263 5.66805 10.1263ZM5.75212 9.26163C5.97631 9.26163 6.16642 9.19558 6.32255 9.06348C6.48268 8.93139 6.59676 8.72924 6.66479 8.45705C6.75685 8.08076 6.82693 7.75251 6.87496 7.47232C6.89096 7.38825 6.89896 7.3022 6.89896 7.21411C6.89896 6.84985 6.70882 6.66771 6.32857 6.66771C6.10437 6.66771 5.91225 6.73376 5.75212 6.86585C5.59602 6.99798 5.48393 7.20012 5.4159 7.47232C5.34383 7.74051 5.27177 8.06876 5.19974 8.45705C5.1837 8.53708 5.1757 8.62115 5.1757 8.70921C5.1757 9.0775 5.36786 9.26163 5.75212 9.26163Z" fill="white"/>
<path d="M8.29736 10.0662C8.25332 10.0662 8.21928 10.0522 8.19528 10.0242C8.17524 9.99212 8.16926 9.95612 8.17726 9.91609L9.00587 6.01321C9.01387 5.96918 9.03588 5.93315 9.07192 5.90511C9.10795 5.87711 9.14596 5.8631 9.186 5.8631H10.7832C11.2275 5.8631 11.5838 5.95516 11.852 6.13929C12.1242 6.32345 12.2603 6.58963 12.2603 6.93788C12.2603 7.03795 12.2483 7.14204 12.2242 7.25011C12.1242 7.71046 11.922 8.05071 11.6178 8.27087C11.3176 8.49103 10.9053 8.60111 10.3809 8.60111H9.57028L9.29409 9.91609C9.28606 9.96012 9.26404 9.99612 9.22804 10.0242C9.19201 10.0522 9.15396 10.0662 9.11396 10.0662H8.29736ZM10.4229 7.77251C10.591 7.77251 10.7371 7.72646 10.8612 7.63439C10.9893 7.54233 11.0734 7.41023 11.1134 7.23811C11.1254 7.17004 11.1314 7.11001 11.1314 7.05798C11.1314 6.94188 11.0974 6.85382 11.0294 6.79379C10.9613 6.72972 10.8452 6.69772 10.6811 6.69772H9.96056L9.7324 7.77251H10.4229Z" fill="white"/>
</svg>
