<svg width="16" height="16" viewBox="0 0 16 16" fill="none" xmlns="http://www.w3.org/2000/svg">
<path d="M8 16C12.4183 16 16 12.4183 16 8C16 3.58172 12.4183 0 8 0C3.58172 0 0 3.58172 0 8C0 12.4183 3.58172 16 8 16Z" fill="#F3BA2F"/>
<path d="M5.92876 7.14891L8.0003 5.07735L10.0728 7.1498L11.2782 5.94447L8.0003 2.66669L4.72352 5.94349L5.9288 7.14882L5.92876 7.14891ZM2.66699 8.00002L3.87236 6.79447L5.07765 7.99976L3.87228 9.20514L2.66699 8.00002ZM5.92876 8.85126L8.0003 10.9227L10.0728 8.85028L11.2788 10.055L11.2782 10.0556L8.0003 13.3334L4.72352 10.0566L4.72181 10.0548L5.92889 8.85113L5.92876 8.85126ZM10.923 8.00053L12.1283 6.79516L13.3336 8.00045L12.1283 9.20582L10.923 8.00053Z" fill="white"/>
<path d="M9.22257 7.99939H9.22308L8.00008 6.77631L7.09611 7.68003L6.99226 7.78392L6.77807 7.99815L6.77637 7.99982L6.77807 8.00157L8.00008 9.22375L9.22316 8.00067L9.22376 7.99999L9.22265 7.99939" fill="white"/>
</svg>
