<svg width="16" height="16" viewBox="0 0 16 16" fill="none" xmlns="http://www.w3.org/2000/svg">
<path d="M15.9999 7.99995C15.9999 12.4183 12.4183 16 8 16C3.5817 16 0 12.4183 0 7.99995C0 3.5817 3.5817 0 8 0C12.4182 0 15.9999 3.5817 15.9999 7.99995Z" fill="#8247E5"/>
<path d="M10.4 6.51001C10.2294 6.41253 10.0101 6.41253 9.81517 6.51001L8.4505 7.31419L7.52448 7.82594L6.18418 8.63011C6.0136 8.72759 5.79428 8.72759 5.59933 8.63011L4.55146 7.99652C4.38088 7.89904 4.25903 7.70409 4.25903 7.48477V6.26632C4.25903 6.07137 4.35651 5.87641 4.55146 5.75457L5.59933 5.14534C5.76991 5.04787 5.98923 5.04787 6.18418 5.14534L7.23205 5.77894C7.40263 5.87641 7.52448 6.07137 7.52448 6.29069V7.09487L8.4505 6.55875V5.7302C8.4505 5.53525 8.35303 5.3403 8.15807 5.21845L6.20855 4.07311C6.03797 3.97563 5.81865 3.97563 5.6237 4.07311L3.62544 5.24282C3.43048 5.3403 3.33301 5.53525 3.33301 5.7302V8.02089C3.33301 8.21584 3.43048 8.41079 3.62544 8.53264L5.59933 9.67798C5.76991 9.77546 5.98923 9.77546 6.18418 9.67798L7.52448 8.89817L8.4505 8.36205L9.7908 7.58225C9.96138 7.48477 10.1807 7.48477 10.3757 7.58225L11.4235 8.19147C11.5941 8.28895 11.716 8.4839 11.716 8.70322V9.92167C11.716 10.1166 11.6185 10.3116 11.4235 10.4334L10.4 11.0426C10.2294 11.1401 10.0101 11.1401 9.81517 11.0426L8.7673 10.4334C8.59672 10.3359 8.47487 10.141 8.47487 9.92167V9.14186L7.54885 9.67798V10.4822C7.54885 10.6771 7.64632 10.8721 7.84128 10.9939L9.81517 12.1393C9.98575 12.2367 10.2051 12.2367 10.4 12.1393L12.3739 10.9939C12.5445 10.8964 12.6663 10.7015 12.6663 10.4822V8.1671C12.6663 7.97215 12.5689 7.7772 12.3739 7.65535L10.4 6.51001Z" fill="white"/>
</svg>
